<svg width="1000" height="1001" viewBox="0 0 1000 1001" fill="none" xmlns="http://www.w3.org/2000/svg">
<path d="M353.851 751.302C362.185 748.349 370.725 746.01 379.401 744.302L380.451 748.152C380.568 748.605 380.845 749.002 381.23 749.268C381.616 749.534 382.085 749.652 382.551 749.601L416.901 745.602C426.351 724.052 443.701 691.402 443.951 690.902C443.701 682.752 443.951 675.902 443.951 668.102C424.301 675.402 387.951 689.252 368.951 698.102C368.521 698.379 368.189 698.783 368.001 699.258C367.812 699.733 367.777 700.256 367.901 700.752C367.901 700.752 368.251 702.002 368.701 703.802C359.401 703.802 331.551 702.452 324.851 708.802C323.809 710.253 323.297 712.018 323.401 713.802C323.001 720.702 326.451 774.302 331.951 790.052C334.801 798.302 340.801 797.402 344.901 789.502C349.646 777.604 352.693 765.098 353.951 752.352C353.951 751.702 353.801 751.752 353.851 751.302ZM348.101 706.551C354.201 706.051 356.101 706.152 369.201 705.752C371.551 714.652 376.401 732.952 378.901 742.302C370.079 743.668 361.371 745.69 352.851 748.351C350.195 734.561 348.607 720.586 348.101 706.551Z" fill="#7064FC"/>
<path d="M814.05 268.952C815.3 267.202 813.7 264.952 812.35 263.202C816.174 259.269 820.415 255.765 825 252.752C832.736 248.897 839.808 243.833 845.95 237.752C848.5 235.102 853.3 229.652 851.5 226.452C849.7 223.252 846.5 223.052 842.15 224.902C844.035 222.923 845.573 220.642 846.7 218.152C848.1 214.252 844.8 211.102 837.65 214.002C840.25 209.852 840.85 205.502 836.45 203.402C832.9 201.702 827.7 205.752 824.7 208.402C818.809 213.549 813.279 219.096 808.15 225.002C805 218.402 800 210.802 793.75 213.202C787.5 215.602 792.35 226.352 795.55 232.202L784.2 240.052C782.485 239.126 780.546 238.693 778.6 238.802C765.7 241.002 706.45 286.102 700.45 286.102C695.85 286.102 630.15 254.602 573.35 245.502C573.24 245.161 573.037 244.859 572.762 244.629C572.488 244.399 572.155 244.251 571.8 244.202C561.893 242.512 551.848 241.758 541.8 241.952C541.495 241.973 541.199 242.059 540.931 242.206C540.663 242.353 540.431 242.556 540.25 242.802H536.05C535.05 238.752 531.35 229.402 530.05 225.802C533.45 222.852 538.15 221.352 540.6 216.602C545.1 207.802 544.9 192.502 543.65 182.702C549.3 178.402 549.45 171.502 548.15 164.452C547.65 161.602 546.1 155.152 543.7 153.552C542.35 152.652 539.5 153.552 537.05 154.452C534.6 148.752 534.6 151.352 535.6 149.052C536.064 147.992 536.335 146.858 536.4 145.702C539.05 146.502 544.55 141.202 542.65 134.202C541.654 131.696 540.433 129.286 539 127.002C539.7 125.302 541.2 123.252 536.5 117.002C534.476 114.819 531.848 113.287 528.95 112.602H526.65C524.991 110.194 522.555 108.428 519.75 107.602C515.515 106.522 511.025 107.151 507.25 109.352C506.25 110.102 505.45 111.102 504.45 111.802C502.189 110.429 499.595 109.703 496.95 109.703C494.305 109.703 491.711 110.429 489.45 111.802C488.126 112.322 486.922 113.103 485.908 114.1C484.894 115.096 484.092 116.288 483.55 117.602C481.1 116.757 478.501 116.431 475.918 116.647C473.336 116.862 470.826 117.613 468.55 118.852C459.912 123.536 453.451 131.415 450.55 140.802C450.469 142.218 450.469 143.637 450.55 145.052H450C442.5 143.952 432.95 161.752 440.6 175.602C441.5 177.252 442.65 178.802 443.75 180.602C446.95 185.602 445.7 187.102 452.85 193.202C454.95 195.002 455.3 194.852 456.6 195.952C457.9 197.052 457.4 196.502 458.15 199.302C458.559 200.952 459.291 202.504 460.304 203.868C461.316 205.233 462.59 206.383 464.05 207.252C464.581 212.143 466.667 216.734 470 220.352C471.056 221.533 472.287 222.545 473.65 223.352C474.018 223.559 474.428 223.679 474.85 223.702C476.35 233.002 478.2 245.102 479 250.252L474.55 252.652C468.728 254.995 463.065 257.717 457.6 260.802C457.171 261.099 456.868 261.544 456.75 262.052C451.45 264.852 446.45 267.502 443.6 269.202C403.9 292.752 291.15 448.002 290 455.102C289.873 455.509 289.873 455.945 290 456.352C291.616 458.931 293.585 461.27 295.85 463.302C295.152 464.575 294.313 465.766 293.35 466.852C283.35 473.402 268.35 483.152 260.3 491.852C259.735 492.356 259.312 492.997 259.071 493.714C258.83 494.432 258.781 495.199 258.927 495.941C259.073 496.683 259.411 497.374 259.906 497.946C260.401 498.518 261.036 498.951 261.75 499.202C263.25 499.702 263.5 499.552 273.25 494.202C270.57 496.553 268.379 499.407 266.8 502.602C266.15 505.352 268.65 506.952 271.8 506.452C273.572 505.987 275.26 505.245 276.8 504.252C275.898 505.645 275.418 507.268 275.418 508.927C275.418 510.586 275.898 512.21 276.8 513.602C281.8 519.902 294.9 500.052 301.8 495.152C304.6 498.702 308.4 507.002 314.45 504.802C319.7 502.852 313.95 491.302 314.45 487.952C316.484 485.999 318.657 484.194 320.95 482.552C324.807 485.413 329.217 487.439 333.9 488.502C342.15 488.502 428.25 401.602 434.8 394.652C432.45 416.752 420.6 511.602 423.1 530.052C424.25 538.402 444.3 539.602 452.75 540.052C450.2 600.052 448.5 690.952 448.05 691.902C434.8 720.452 431.2 728.252 426.75 736.902C418.65 752.402 384.55 809.602 380.7 822.602C380.15 824.652 380.1 825.452 382.25 829.252C375.807 836.026 369.827 843.226 364.35 850.802C361.6 855.802 373.4 902.402 381.75 918.902C383.65 922.602 386.75 928.302 390.9 928.152C403.4 927.702 403.35 882.802 403 870.252C402.998 869.865 402.856 869.492 402.6 869.202C404.866 865.82 407.337 862.581 410 859.502C411.589 860.596 413.261 861.566 415 862.402C416.7 863.152 418.6 861.852 420 860.702C436.65 847.602 526.45 735.702 545.7 682.902C554.45 658.802 566.1 625.502 569.4 601.902C571.417 586.981 571.602 571.868 569.95 556.902C569.95 556.69 570.034 556.487 570.184 556.336C570.334 556.186 570.538 556.102 570.75 556.102C570.962 556.102 571.166 556.186 571.316 556.336C571.466 556.487 571.55 556.69 571.55 556.902C574.054 571.954 574.542 587.272 573 602.452C569.3 635.202 543.45 703.452 529.65 728.552C541.55 726.352 565.75 721.552 577.45 718.052C616.45 706.202 652.45 670.852 655.6 631.152C656.619 612.449 656.619 593.705 655.6 575.002C655.262 549.183 651.906 523.492 645.6 498.452C656.2 492.702 665.9 485.952 669.05 479.752C675.8 466.502 657.95 390.252 654.05 368.852C675.4 371.202 711.75 375.452 728.7 362.202C748.1 346.602 790 302.702 814.05 268.952ZM400.3 867.502C391.3 862.052 378.7 849.102 376.8 838.952C378.85 836.352 381 833.952 383 831.252C389.776 841.592 398.225 850.734 408 858.302C405.254 861.214 402.683 864.286 400.3 867.502ZM797.8 233.602C798.058 233.437 798.244 233.179 798.318 232.882C798.393 232.584 798.35 232.269 798.2 232.002C796.45 228.752 791.2 217.302 794.85 216.002C796.95 215.202 798.8 216.502 800.35 218.252C802.717 221.255 804.559 224.636 805.8 228.252C805.893 228.546 806.063 228.81 806.294 229.014C806.525 229.218 806.807 229.356 807.11 229.413C807.413 229.469 807.726 229.442 808.014 229.335C808.303 229.227 808.558 229.043 808.75 228.802C813.75 223.252 825.45 210.602 832.05 207.202C837.05 204.602 838.25 209.402 826 220.602C823.186 222.748 820.483 225.034 817.9 227.452C817.758 227.648 817.681 227.885 817.681 228.127C817.681 228.37 817.758 228.606 817.9 228.802C817.9 230.102 818.95 231.552 820.75 230.202C825.096 226.387 829.69 222.863 834.5 219.652C836.955 217.908 839.809 216.808 842.8 216.452C841.3 221.052 827.35 233.552 826.15 234.952C825.769 235.293 825.538 235.77 825.506 236.28C825.473 236.79 825.642 237.293 825.976 237.679C826.311 238.066 826.783 238.306 827.293 238.348C827.802 238.389 828.307 238.229 828.7 237.902C834.25 234.302 843.95 225.902 847.3 227.152C850.65 228.402 840.7 237.702 838.2 239.902C823.85 252.352 827.55 244.352 810.95 261.252C803.724 253.337 795.427 246.47 786.3 240.852L797.8 233.602ZM580.55 472.752C579.7 465.852 578.65 458.402 577.35 450.652L579.5 447.802C589.5 434.952 592.5 414.502 591.55 398.452C596.9 421.902 601.15 444.952 604.4 467.852L580.55 472.752ZM506.2 301.552C493.05 291.552 471.9 274.302 459.6 262.502L479.6 252.502C497.965 269.656 513.686 289.438 526.25 311.202C545.461 346.494 559.712 384.266 568.6 423.452L497.3 322.602L506.6 303.302C506.723 303.005 506.751 302.677 506.679 302.363C506.607 302.05 506.44 301.766 506.2 301.552ZM540 244.852C540.3 245.402 543.75 252.752 549 265.602C549 266.152 548.05 278.652 547.6 283.052C541.218 280.523 535.2 277.16 529.7 273.052C530.8 268.702 535.75 248.952 536.1 244.502L540 244.852ZM522.25 298.552C522.6 297.652 522.95 296.452 523.35 295.052L526.7 296.802C528.6 298.052 527.85 294.252 529.55 305.252C529.55 307.102 530.05 309.152 530.15 311.402C527.85 307.252 525 302.802 522.3 298.552H522.25ZM519.45 294.352C510.004 280.954 499.251 268.526 487.35 257.252L525 273.602C523.55 277.052 521.45 287.602 519.5 294.352H519.45ZM557.9 323.652C552.9 310.002 549.05 294.752 547.15 290.752C547.263 289.505 547.263 288.25 547.15 287.002C547.873 287.271 548.63 287.44 549.4 287.502C549.882 287.508 550.35 287.339 550.718 287.026C551.085 286.714 551.328 286.279 551.4 285.802C551.8 284.152 552.45 275.802 552.55 273.952C567.095 310.675 579.237 348.304 588.9 386.602C560.65 326.502 565 343.902 557.95 323.652H557.9ZM599.25 419.102C587.85 364.452 567.8 296.302 545 245.802C553.373 245.807 561.733 246.476 570 247.802C574.25 285.802 570.7 284.502 573.55 286.002C576.4 287.502 593.55 294.402 596.1 295.452C595.85 299.302 599.45 409.402 599.3 419.102H599.25ZM541.7 156.752C544.306 162.44 545.226 168.757 544.35 174.952C543.943 176.529 543.106 177.962 541.933 179.091C540.76 180.221 539.297 181.003 537.706 181.35C536.115 181.697 534.458 181.596 532.921 181.058C531.384 180.52 530.027 179.566 529 178.302C526.614 173.277 524.819 167.991 523.65 162.552C525 160.802 539.4 157.302 541.7 156.752ZM472.9 206.752C471.073 205.921 469.204 205.186 467.3 204.552C466.022 204.027 464.881 203.216 463.965 202.181C463.049 201.147 462.382 199.916 462.015 198.584C461.648 197.252 461.591 195.854 461.849 194.496C462.106 193.138 462.671 191.858 463.5 190.752C466.65 188.102 469.5 188.252 472.1 192.202C473.75 195.252 473.7 195.502 474.45 195.802C474.665 195.897 474.898 195.945 475.133 195.942C475.368 195.94 475.6 195.887 475.813 195.787C476.026 195.688 476.215 195.544 476.368 195.366C476.521 195.187 476.634 194.978 476.7 194.752C477.441 191.623 477.56 188.378 477.05 185.202C476.45 181.752 476.35 166.452 476.45 165.952C477.91 166.722 479.551 167.085 481.2 167.002C490.25 166.652 492.05 162.002 495.65 158.202C499.8 158.602 500.65 160.602 505.35 158.202C507.551 156.95 509.57 155.403 511.35 153.602C512.787 154.191 514.175 154.893 515.5 155.702C518.497 157.143 521.876 157.586 525.143 156.965C528.409 156.344 531.391 154.692 533.65 152.252C534.2 153.302 534.7 154.352 535.15 155.452C530.555 156.878 526.23 159.058 522.35 161.902C521.5 162.952 522.75 168.652 523.05 170.002C518.861 170.529 514.808 171.835 511.1 173.852C510.35 171.252 508.7 166.402 506.1 165.052C505.318 164.813 504.482 164.813 503.7 165.052C499.2 165.752 483.05 170.602 481.1 173.252C479.4 175.102 484.25 189.402 485.75 191.752C491.5 200.652 508.35 198.052 511.5 187.652C512.28 184.162 512.28 180.542 511.5 177.052C512.95 177.052 517.3 175.502 517.8 175.352C521.25 183.102 522.25 183.552 526.25 191.902C525.7 192.352 524.8 193.102 524.05 193.602C520.5 195.952 519.75 195.552 519.95 196.552C520.008 196.751 520.137 196.921 520.312 197.032C520.487 197.142 520.696 197.185 520.9 197.152C522.998 196.852 525.049 196.281 527 195.452C528.168 195.017 529.13 194.161 529.7 193.052C531.1 189.902 523.35 178.052 520.3 174.502C520.9 174.502 522.3 173.502 523.35 172.952C524.75 178.552 525.7 182.952 531.1 185.152C532.661 185.741 534.324 186.01 535.991 185.941C537.657 185.872 539.293 185.468 540.8 184.752C541.6 193.552 541.45 207.852 537.25 215.652C535.1 219.702 529.8 221.252 526.4 224.602C525.4 225.552 526.05 226.902 526.4 228.352C531.95 243.802 532.05 243.752 531.75 245.752C530.278 254.053 528.223 262.24 525.6 270.252C524.35 269.702 510.3 262.252 482.8 251.552C481.95 245.902 477.4 215.752 475.95 210.202C476.05 208.252 475.8 207.802 472.9 206.502V206.752ZM507.9 186.352C506.3 191.802 498.75 194.152 493.35 192.652C487.95 191.152 487.6 188.402 485.05 181.902C483.855 179.419 483.029 176.774 482.6 174.052C484.25 172.252 502.3 168.552 504.55 168.202C507.706 173.601 508.89 179.928 507.9 186.102V186.352ZM312.25 486.552C310.35 488.402 312.9 494.452 313.3 499.702C313.3 500.152 313.3 502.102 313 502.252C310.25 503.152 307.7 499.002 306.15 496.502C304.6 494.002 303.05 490.602 300.6 491.502C295.6 493.852 284 509.252 279.45 510.852C277.15 506.452 290.3 493.902 290.75 493.202C290.943 492.881 291.044 492.513 291.042 492.138C291.04 491.763 290.936 491.396 290.74 491.076C290.544 490.756 290.264 490.497 289.931 490.325C289.598 490.153 289.224 490.076 288.85 490.102C287.95 490.102 287.35 490.902 285.95 492.152C281.692 496.308 276.818 499.782 271.5 502.452C276.321 496.921 281.481 491.694 286.95 486.802C287.22 486.524 287.41 486.179 287.5 485.802C287.5 485.802 286.45 483.152 284.4 484.202C281.5 485.802 267.4 493.952 262.95 496.052C262.35 495.652 262.7 495.052 262.95 494.452C270 485.802 285.5 475.302 295 468.652C296.115 467.504 297.043 466.188 297.75 464.752C304.329 470.874 311.348 476.506 318.75 481.602C316.47 483.097 314.298 484.751 312.25 486.552ZM428.6 532.002C427.5 531.302 426.7 530.652 426.55 529.752C423.8 509.352 439.1 393.752 438.85 389.202C438.85 388.935 438.797 388.671 438.693 388.425C438.589 388.179 438.438 387.956 438.247 387.77C438.056 387.584 437.829 387.437 437.581 387.34C437.332 387.242 437.067 387.195 436.8 387.202C434.25 387.202 438.75 387.202 375.05 448.202C370.85 452.152 338.75 482.852 333.4 484.902C326.05 484.352 298.4 462.302 293.9 455.352C302.6 437.752 408.1 292.952 444.6 270.802C447.4 269.102 452.2 266.452 457.45 263.652C459.265 265.364 461.222 266.92 463.3 268.302C474.9 279.302 491.05 293.002 503.3 303.302L493.75 322.252C493.605 322.503 493.529 322.788 493.529 323.077C493.529 323.367 493.605 323.651 493.75 323.902C571.3 435.152 570.15 433.902 570.65 433.902C575.621 459.61 578.713 485.645 579.9 511.802C579.9 518.852 579.9 518.252 580.2 517.752C580.5 517.252 580.2 518.102 580.2 518.102C568.1 531.302 448.35 543.602 428.6 532.002ZM705 366.352C682.35 369.502 656.75 364.802 651.8 364.602C649.049 351.273 643.567 338.658 635.7 327.552C635.58 327.39 635.403 327.28 635.205 327.243C635.007 327.206 634.802 327.245 634.631 327.352C634.461 327.459 634.337 327.627 634.285 327.822C634.233 328.017 634.256 328.224 634.35 328.402C637.25 334.302 646.95 359.752 649.35 365.952C648.6 368.352 671.95 464.902 665.35 477.902C659.45 489.652 625.1 504.452 612.7 508.702C610.248 480.867 606.242 453.19 600.7 425.802C602.4 411.402 600.2 325.802 599.55 294.152C599.531 293.784 599.408 293.43 599.196 293.129C598.983 292.828 598.69 292.593 598.35 292.452L575.9 283.002C575.798 271.12 575.047 259.252 573.65 247.452C629.7 257.152 695 289.202 700.45 289.252C708.35 289.252 767.05 244.252 779.2 242.452C784.6 241.602 807.8 261.852 810.5 267.452C786.8 300.552 745.15 344.052 725.85 359.102C719.633 363.259 712.455 365.755 705 366.352Z" fill="#7064FC"/>
<path d="M502.75 176.351C502.688 176.022 502.561 175.709 502.378 175.43C502.195 175.151 501.958 174.91 501.682 174.722C501.406 174.534 501.095 174.402 500.768 174.334C500.441 174.266 500.103 174.263 499.775 174.326C499.447 174.388 499.134 174.514 498.855 174.698C498.575 174.881 498.335 175.117 498.147 175.394C497.958 175.67 497.827 175.98 497.759 176.308C497.691 176.635 497.688 176.972 497.75 177.301C498.75 182.301 498.95 183.451 501.15 183.451C501.566 183.452 501.976 183.35 502.342 183.153C502.708 182.956 503.02 182.671 503.248 182.324C503.477 181.976 503.615 181.577 503.65 181.163C503.685 180.748 503.617 180.332 503.45 179.951C503.3 179.151 502.85 176.801 502.75 176.351ZM518.05 209.451C521.3 210.401 524.4 208.851 524.3 208.051C524.2 207.251 524.3 207.651 519.9 206.001C516.95 204.901 513.7 201.001 512.55 201.601C511.4 202.201 513.15 205.401 513.55 206.001C514.62 207.623 516.205 208.839 518.05 209.451ZM609.5 161.951C602.95 189.401 598.15 212.701 597.35 217.351C596.819 219.374 596.717 221.486 597.05 223.551C599.7 229.201 633.95 240.351 638.3 238.151C642.65 235.951 653.95 210.501 667.1 184.251C675.156 184.508 683.216 183.921 691.15 182.501C699.504 180.968 707.633 178.398 715.35 174.851C732.25 167.051 750.75 133.651 753.25 116.851C755.125 98.6108 751.262 80.2405 742.2 64.3005C700.25 -8.44946 577.2 30.7005 587.2 111.501C590.056 129.989 597.749 147.394 609.5 161.951ZM640 221.501C640 222.301 639.1 222.201 635 221.501C626.614 220.447 618.495 217.853 611.05 213.851C607.55 211.951 606.6 211.551 606.95 210.701C607.3 209.851 608.05 210.151 613.45 211.651C613.95 211.651 629.45 216.651 633.9 218.201C639.65 220.801 640 220.801 640 221.501ZM639.1 140.151C644.439 140.427 649.76 139.325 654.55 136.951C659.002 139.107 663.818 140.413 668.75 140.801C660.35 156.451 643.3 188.351 637.8 205.351L616.6 199.501C621.6 187.201 632.65 158.401 639 140.151H639.1ZM637.35 136.001C633.618 135.437 630.173 133.664 627.545 130.955C624.917 128.245 623.25 124.748 622.8 121.001C621.4 111.001 627.8 99.8005 637.45 102.451C643.5 104.101 644.25 108.901 643.2 114.951C642.3 119.351 639.05 130.401 637.25 135.801L637.35 136.001ZM650.95 124.001C651.484 120.729 652.712 117.609 654.55 114.851C655.425 113.347 656.704 112.119 658.242 111.305C659.78 110.492 661.515 110.127 663.25 110.251C666.95 111.351 668.55 118.351 665.5 122.751C662.569 126.64 658.92 129.933 654.75 132.451C653.315 131.608 652.173 130.347 651.475 128.837C650.778 127.326 650.56 125.639 650.85 124.001H650.95ZM605 60.4505C627.4 33.5005 669.55 22.8005 700 33.9005C716.542 39.5787 730.456 51.0759 739.15 66.2505C747.771 81.4183 751.458 98.8929 749.7 116.251C747.4 131.801 729.7 164.101 714.15 171.251C699.933 177.736 684.421 180.883 668.8 180.451C667.1 180.451 665.3 180.451 664.65 181.651C661.7 187.651 656.3 199.251 651 210.151C647.34 208.383 643.545 206.912 639.65 205.751C645.45 189.151 663.75 156.551 672.45 140.751C679.988 141.396 687.565 140.088 694.45 136.951C696.31 135.971 697.852 134.482 698.896 132.657C699.939 130.832 700.44 128.748 700.341 126.648C700.241 124.548 699.544 122.521 698.333 120.803C697.121 119.085 695.445 117.749 693.5 116.951C685.75 113.151 678.8 122.251 674.75 129.901C673.65 131.901 672.4 134.251 671 136.901C666.956 136.635 662.968 135.81 659.15 134.451C662.953 131.778 666.325 128.541 669.15 124.851C670.733 122.46 671.535 119.637 671.446 116.771C671.356 113.905 670.379 111.138 668.65 108.851C667.292 107.273 665.405 106.245 663.343 105.96C661.281 105.675 659.186 106.151 657.45 107.301C653.949 109.452 651.142 112.569 649.369 116.276C647.595 119.983 646.929 124.124 647.45 128.201C647.994 130.502 649.233 132.579 651 134.151C647.72 135.509 644.2 136.189 640.65 136.151C642.65 130.251 645.9 119.601 646.75 115.251C647.283 112.771 647.402 110.219 647.1 107.701C646.713 105.538 645.71 103.534 644.211 101.928C642.712 100.323 640.781 99.1846 638.65 98.6505C626.5 95.2005 617.55 108.651 619.3 121.201C619.794 125.698 621.725 129.916 624.805 133.231C627.885 136.545 631.951 138.779 636.4 139.601C630 157.601 620 186.651 615 199.051L604 196.201C611.05 160.801 611.9 161.651 610.9 161.201C599.539 146.716 592.27 129.449 589.85 111.201C588.672 102.152 589.412 92.9564 592.022 84.2125C594.632 75.4687 599.054 67.3724 605 60.4505ZM674.4 137.201C677.9 130.851 684.9 116.951 691.7 120.351C693.06 120.899 694.245 121.808 695.126 122.979C696.007 124.151 696.551 125.542 696.7 127.001C696.6 135.801 682.9 137.351 674.2 137.201H674.4ZM865.8 159.251C871.826 155.707 878.942 154.497 885.8 155.851C893.333 155.985 900.529 158.997 905.912 164.269C911.296 169.54 914.458 176.672 914.75 184.201C910.22 181.572 904.923 180.583 899.75 181.401C887.2 182.501 870.8 189.301 873 201.401C874.8 211.401 888 210.051 898 207.351C908 204.651 915.95 199.751 918 190.101C930.15 198.951 933 214.451 933.5 229.601C933.5 229.813 933.584 230.016 933.734 230.166C933.884 230.316 934.088 230.401 934.3 230.401C934.512 230.401 934.716 230.316 934.866 230.166C935.016 230.016 935.1 229.813 935.1 229.601C935.45 212.651 932.4 196.051 918.55 186.401C918.693 182.059 917.953 177.735 916.375 173.688C914.797 169.641 912.415 165.956 909.372 162.857C906.329 159.758 902.688 157.309 898.671 155.657C894.654 154.006 890.343 153.187 886 153.251C879.059 152.237 871.982 153.688 866 157.351C864.15 158.251 865 159.601 865.8 159.251ZM911.4 195.101C905.75 202.501 889.75 206.351 882.35 205.101C879.6 204.651 877.35 203.501 876.75 200.651C874.95 190.651 892.2 185.201 902.5 184.851C906.694 184.529 910.878 185.601 914.4 187.901C914.022 190.515 912.99 192.991 911.4 195.101ZM842.9 100.801C848.25 94.2005 844.65 82.7005 829.7 82.6505C823.9 82.6505 821.1 88.5505 821.5 94.2005C822.4 107.651 837.55 107.251 842.9 100.801ZM825 93.9505C825 90.6505 826.55 86.3505 830 86.4005C838.05 86.4005 841.75 90.1505 841.75 94.3005C841.55 103.751 824.35 108.651 825 93.9505ZM822.95 660.801C779 643.251 758.6 728.201 722.7 801.201C722.473 804.269 722.574 807.353 723 810.401C723 818.05 723.85 868.701 728.3 874.451C729.5 876.75 734.55 874.451 736.9 873C756.859 860.645 775.668 846.521 793.1 830.801C793.249 830.631 793.361 830.432 793.43 830.217C793.499 830.002 793.522 829.775 793.5 829.551C802.8 816.3 837.65 747.301 846.1 712.701C852 688.201 846.15 669.951 822.95 660.801ZM838.65 724.3C815.121 721.286 792.373 713.856 771.6 702.401C783.3 680.251 797.75 655.001 821.6 664.501C848.15 675.051 847.6 696.901 838.65 724.151V724.3ZM755.45 854.3C753.915 853.013 752.237 851.906 750.45 851C743.694 847.565 735.887 846.815 728.6 848.901C728.1 842.951 725.25 804.25 725.25 803.901C762.7 817.6 751.15 811.651 788.25 830.101C784.35 833.801 769.7 844.05 755.45 854.2V854.3ZM781.25 709.6C786.127 712.265 791.133 714.684 796.25 716.851C784.79 734.853 774.663 753.669 765.95 773.151C757.55 790.701 757.85 790.6 749.3 809.75C744.3 808.15 739.3 806.651 734.3 805.151C739.7 794.4 778.1 715.801 781.25 709.501V709.6ZM751.25 810.25C767.5 781.101 784.05 744.85 798.25 717.5C803.25 719.6 808.25 721.3 813.25 722.8C810.6 727.8 802.85 741.101 800.8 744.951C798.75 748.801 778.2 789.301 776.75 792.401C774.45 797.401 768.15 811.351 766.2 815.801C761.1 813.551 756.2 811.85 751.05 810.151L751.25 810.25ZM768 816.451C771.05 810.901 783.6 787.6 785.15 784.6C787.5 779.951 813.7 726.401 815.15 723.301C819.75 724.601 824.6 725.701 827.7 726.301C818.55 751.301 792.2 799.451 782.7 823.201C774.05 819.151 772.1 818.151 767.8 816.351L768 816.451ZM771.05 703.851L780 708.851C761.964 739.566 746.253 771.589 733 804.651L725.5 802.35C754.55 740.451 755.9 732.35 770.85 703.75L771.05 703.851ZM791.65 827.551L784.1 823.951C792.25 807.951 817.75 766.901 829.4 726.651C832.2 727.151 834.95 727.6 837.6 727.95C824.751 762.235 809.324 795.497 791.45 827.451L791.65 827.551ZM635 860C636.993 858.351 638.418 856.117 639.072 853.614C639.727 851.111 639.58 848.465 638.65 846.051C638.226 842.567 636.628 839.331 634.12 836.876C631.612 834.422 628.343 832.894 624.851 832.544C621.359 832.195 617.852 833.045 614.907 834.955C611.963 836.865 609.756 839.72 608.65 843.05C602.25 838.901 595.3 834.5 588.65 830.3C593.65 823.65 608.35 826.601 609.85 832.051C609.883 832.263 609.999 832.453 610.173 832.58C610.346 832.706 610.563 832.759 610.775 832.725C610.987 832.692 611.178 832.576 611.304 832.403C611.431 832.229 611.483 832.013 611.45 831.8C610.7 823.1 592.6 818.001 585.3 828.251C578.85 824.301 570.85 819.5 564.15 815.85C569.9 810.85 582.75 813.651 584.15 818.851C584.216 819.028 584.343 819.177 584.508 819.27C584.673 819.363 584.866 819.394 585.052 819.358C585.239 819.322 585.406 819.221 585.525 819.073C585.643 818.925 585.706 818.74 585.7 818.551C585.05 810.451 568.3 805 560.7 813.901C557.516 812.116 554.167 810.643 550.7 809.501C550.067 809.238 549.371 809.164 548.697 809.288C548.022 809.412 547.398 809.729 546.9 810.201C534.25 825.951 491.6 866.851 471.9 871.601C471.405 871.675 470.938 871.879 470.547 872.191C470.155 872.504 469.853 872.914 469.671 873.38C469.488 873.847 469.432 874.353 469.507 874.848C469.582 875.343 469.787 875.81 470.1 876.201C474.426 880.591 479.38 884.315 484.8 887.25C479.8 892.25 475.9 896.75 473 900C471.5 901.6 470.7 932.201 472 938.951C472.194 939.611 472.62 940.18 473.2 940.55C479.5 944.85 560.65 979.951 568.95 975.25C574.5 972.101 640.75 903.151 641.8 901.051C643.4 897.751 642.85 875.75 642.75 866.951C642.35 864.3 637.4 861.451 635 860ZM475 926.051V914.901C495.75 924.901 543.25 945.3 561.25 951C565.85 952.5 566.25 952.3 568.65 951C582.4 942.201 630.95 887.5 639.85 879.151V889.701C612.85 916.75 567 964.151 566.15 961.451C561.2 961.151 479.3 928.051 475 926.051ZM633.75 843.151C635.548 846.179 636.514 849.629 636.55 853.151C636.533 854.271 636.258 855.373 635.746 856.37C635.235 857.367 634.5 858.233 633.6 858.901C629.4 856.1 621.45 850.901 612.05 844.801C617.2 834.651 628.65 834.5 633.55 843.151H633.75ZM473.75 875.151C495.05 868.85 535.5 829.85 549.1 812.95C552.373 813.861 555.528 815.154 558.5 816.8C553.5 826.1 558.85 836.3 560.75 834.85C561.8 834.05 559.9 833.75 559.6 828.851C559.472 825.271 560.283 821.72 561.95 818.551C568.85 822.151 576.95 826.851 583.8 830.801C579.6 840.151 584.65 849.401 586.4 848.05C588.15 846.701 585.6 847 585.3 842.1C585.178 838.887 585.794 835.689 587.1 832.75C594.15 836.901 601.35 841.201 607.95 845.25C606.933 847.742 606.529 850.441 606.773 853.121C607.017 855.801 607.901 858.383 609.35 860.651C609.416 860.736 609.498 860.807 609.591 860.861C609.684 860.915 609.787 860.95 609.894 860.964C610.001 860.978 610.109 860.97 610.213 860.942C610.317 860.914 610.415 860.866 610.5 860.801C610.586 860.735 610.657 860.653 610.711 860.56C610.765 860.466 610.799 860.363 610.813 860.257C610.827 860.15 610.82 860.041 610.792 859.937C610.764 859.833 610.716 859.736 610.65 859.651C609.752 857.664 609.308 855.502 609.351 853.322C609.394 851.142 609.924 849 610.9 847.051C622.55 854.151 631.95 860.101 634.85 862.051C634.3 862.551 582.15 908.951 564.4 922.75C552.75 919.701 491.6 889.35 473.75 875.151ZM475.65 903C498.3 913 549.75 936.201 561.6 938.451C563.65 938.851 564.45 939.001 568.35 935.901C585 922.551 639.15 865.901 639.65 866.5C639.674 866.65 639.674 866.801 639.65 866.951V876.951C628.5 885.901 566.5 951 565.5 947.901C560.5 947.901 479.25 914.75 475.1 912.901C475 910.8 475.45 905.201 475.65 903ZM566.7 971.901C561.7 974.75 485.55 943.8 475.35 937.5C474.967 934.315 474.783 931.109 474.8 927.901C496.7 938.701 560.4 965.601 566.25 965.351C574.8 964.901 635.25 896.85 639.55 892.1C639.6 894.654 639.348 897.205 638.8 899.701C637.95 901.351 570 970.051 566.7 971.901ZM152.45 690.051C152.8 695.401 153.05 700.051 153.05 704.401C153.05 705.064 153.314 705.699 153.782 706.168C154.251 706.637 154.887 706.901 155.55 706.901C156.213 706.901 156.849 706.637 157.318 706.168C157.787 705.699 158.05 705.064 158.05 704.401C158.05 699.75 157.8 695.151 157.45 689.701C157.404 689.037 157.096 688.42 156.594 687.984C156.093 687.548 155.438 687.329 154.775 687.375C154.112 687.422 153.495 687.73 153.059 688.231C152.623 688.733 152.404 689.388 152.45 690.051ZM914.3 589.801C913.974 589.819 913.654 589.904 913.361 590.048C913.067 590.192 912.806 590.394 912.591 590.641C912.377 590.888 912.214 591.175 912.113 591.486C912.011 591.797 911.973 592.125 912 592.451C912.3 597.051 912.6 602.001 912.6 606.801C912.6 607.464 912.864 608.099 913.332 608.568C913.801 609.037 914.437 609.301 915.1 609.301C915.763 609.301 916.399 609.037 916.868 608.568C917.337 608.099 917.6 607.464 917.6 606.801C917.6 601.801 917.3 596.801 916.95 592.101C916.931 591.774 916.847 591.455 916.703 591.161C916.559 590.868 916.357 590.606 916.11 590.392C915.863 590.177 915.576 590.015 915.265 589.913C914.954 589.812 914.626 589.773 914.3 589.801ZM139.5 677.601C140.163 677.601 140.799 677.337 141.268 676.868C141.737 676.399 142 675.764 142 675.101C142 674.437 141.737 673.802 141.268 673.333C140.799 672.864 140.163 672.601 139.5 672.601C133.45 672.601 128.4 673.05 123.4 672.95C122.732 672.95 122.091 673.212 121.614 673.68C121.138 674.147 120.863 674.783 120.85 675.45C120.85 676.114 121.114 676.749 121.582 677.218C122.051 677.687 122.687 677.95 123.35 677.95C128.5 678.05 134.15 677.851 139.5 677.601ZM898.8 575.001C892.8 575.001 887.75 575.351 882.7 575.401C882.037 575.401 881.401 575.664 880.932 576.133C880.464 576.602 880.2 577.237 880.2 577.901C880.2 578.564 880.464 579.199 880.932 579.668C881.401 580.137 882.037 580.401 882.7 580.401C888.1 580.401 893.7 580.401 899.1 580.001C899.763 579.961 900.383 579.659 900.824 579.162C901.265 578.665 901.49 578.014 901.45 577.351C901.41 576.688 901.109 576.067 900.612 575.627C900.115 575.186 899.463 574.961 898.8 575.001ZM151.1 646.701C151.4 651.301 151.7 656.251 151.7 661.051C151.713 661.71 151.98 662.338 152.447 662.804C152.913 663.27 153.541 663.538 154.2 663.551C154.863 663.551 155.499 663.287 155.968 662.818C156.437 662.349 156.7 661.714 156.7 661.051C156.7 656.051 156.4 651.051 156.1 646.351C156.054 645.688 155.746 645.07 155.244 644.634C154.743 644.198 154.088 643.979 153.425 644.026C152.762 644.072 152.145 644.38 151.709 644.882C151.273 645.383 151.054 646.037 151.1 646.701ZM916.25 563.451C916.25 558.451 915.95 553.451 915.6 548.751C915.554 548.087 915.246 547.47 914.744 547.034C914.242 546.598 913.588 546.379 912.925 546.426C912.262 546.472 911.645 546.78 911.209 547.281C910.773 547.783 910.554 548.438 910.6 549.101C910.9 553.701 911.2 558.651 911.2 563.451C911.2 564.114 911.464 564.749 911.932 565.218C912.401 565.687 913.037 565.951 913.7 565.951C914.368 565.951 915.009 565.689 915.486 565.221C915.963 564.754 916.237 564.118 916.25 563.451ZM188 676.951C188.329 676.938 188.651 676.86 188.95 676.722C189.248 676.585 189.516 676.39 189.739 676.148C189.962 675.907 190.135 675.624 190.249 675.315C190.362 675.007 190.414 674.679 190.4 674.351C190.35 673.696 190.054 673.085 189.571 672.64C189.089 672.195 188.456 671.949 187.8 671.951C181.75 672.201 176.7 672.401 171.65 672.301C170.987 672.301 170.351 672.564 169.882 673.033C169.414 673.502 169.15 674.137 169.15 674.801C169.15 675.464 169.414 676.099 169.882 676.568C170.351 677.037 170.987 677.301 171.65 677.301C177 677.401 182.6 677.201 188 676.951ZM947.3 574.351C942.3 574.601 936.75 574.751 931.2 574.751C930.87 574.737 930.541 574.79 930.232 574.908C929.923 575.025 929.641 575.203 929.403 575.432C929.164 575.661 928.975 575.935 928.846 576.239C928.716 576.543 928.65 576.87 928.65 577.201C928.65 577.868 928.912 578.509 929.379 578.986C929.847 579.463 930.482 579.737 931.15 579.751C936.85 579.751 941.45 579.751 947.5 579.351C947.828 579.338 948.151 579.26 948.45 579.122C948.748 578.985 949.016 578.79 949.239 578.548C949.462 578.307 949.635 578.024 949.749 577.715C949.862 577.407 949.914 577.079 949.9 576.751C949.839 576.1 949.539 575.496 949.059 575.053C948.58 574.61 947.953 574.36 947.3 574.351ZM73.1001 528.801C73.7501 529.301 214.75 508.401 220.8 504.701C221.135 504.456 221.403 504.131 221.578 503.755C221.752 503.379 221.829 502.964 221.8 502.551C221.8 496.101 213.35 435.551 209.3 420.451C208.8 418.601 208.3 416.751 207.15 416.101C199.5 411.501 64.7001 436.901 56.6501 442.101C56.432 442.229 56.2435 442.403 56.097 442.61C55.9505 442.817 55.8494 443.052 55.8001 443.301C54.1001 449.351 68.7501 525.801 73.1001 528.801ZM58.8502 444.501C68.4502 440.151 190.8 417.751 204.8 419.501C208.2 428.251 217.3 492.351 217.9 501.751C210.95 503.801 75.0001 527.151 74.5001 527.251C74.0001 527.351 73.9501 527.951 72.9001 524.801C68.5001 511.601 58.6002 455.801 58.8502 444.501Z" fill="#7064FC"/>
<path d="M231.8 509.151C232.072 508.645 232.194 508.073 232.15 507.501C232.15 499.551 220.75 411.301 216.7 404.251C216.383 403.731 215.933 403.304 215.398 403.015C214.862 402.725 214.259 402.582 213.65 402.601C196.9 400.551 55.6002 428.151 46.3002 434.601C45.0002 435.501 45.2002 437.751 45.3502 440.151C46.1502 453.301 60.3502 539.801 65.3502 539.301C65.9002 539.301 65.7002 538.901 64.4002 541.551C56.6002 557.601 41.8002 609.001 42.1002 619.351C42.1002 623.701 43.1002 629.351 47.4002 629.051C78.2502 625.251 229.5 601.251 273 592.301C274.7 591.951 275.8 590.401 275.75 587.851C275.237 583.602 273.949 579.484 271.95 575.701C265.85 564.251 240.55 518.901 231.8 509.151ZM65.6502 537.751C61.7502 532.751 47.4002 446.601 48.5002 437.051C59.5002 431.351 198.9 404.401 213.5 406.601C217.5 417.601 227.85 497.051 228.5 506.601C210.8 512.701 88.2502 532.501 65.6502 537.751ZM67.8502 539.251C72.0502 538.201 215.1 514.251 228.2 510.801C235.35 517.451 267.65 574.901 269.75 579.801C241.05 584.801 70.8002 613.251 45.7502 617.051C46.1002 601.901 61.6502 548.951 67.8502 539.251Z" fill="#7064FC"/>
<path d="M86.6503 591.103C91.0003 590.453 183.3 579.353 216.65 570.303C216.856 570.25 217.032 570.118 217.14 569.935C217.248 569.752 217.278 569.534 217.225 569.328C217.172 569.123 217.04 568.947 216.857 568.839C216.674 568.731 216.456 568.7 216.25 568.753C209.7 570.103 129.8 580.753 86.5503 589.553C86.4308 589.532 86.308 589.538 86.1911 589.571C86.0743 589.604 85.9665 589.663 85.8759 589.744C85.7854 589.825 85.7144 589.925 85.6684 590.037C85.6223 590.15 85.6025 590.271 85.6103 590.392C85.6181 590.513 85.6534 590.631 85.7135 590.736C85.7736 590.842 85.8569 590.932 85.9571 591.001C86.0573 591.069 86.1718 591.114 86.2919 591.132C86.412 591.15 86.5345 591.14 86.6503 591.103ZM154.1 243.203C152.232 247.422 150.662 251.766 149.4 256.203C149.326 256.915 149.522 257.629 149.95 258.203C155 265.803 206.75 324.153 220.25 332.353C222.1 333.503 224.3 334.303 225.65 332.653C235.457 320.45 248.255 310.994 262.8 305.203C274.638 301.015 287.05 298.671 299.6 298.253C309.6 297.353 311.35 296.353 315.2 289.803C319.742 281.183 325.767 273.431 333 266.903C342.223 258.839 352.46 252.015 363.45 246.603C363.945 246.323 364.332 245.885 364.549 245.36C364.767 244.834 364.802 244.251 364.65 243.703C362.96 239.402 360.725 235.336 358 231.603C359.8 231.003 361.8 230.453 361.8 228.653C361.8 223.653 318.2 160.553 306.1 148.653C304.85 147.403 303.05 145.753 301.4 145.853C276.4 147.253 252.05 170.853 237.95 191.453C221.8 190.853 211.35 189.403 192.95 197.153C179.961 202.667 168.249 210.803 158.55 221.053C157.05 222.603 146.85 233.403 146.7 234.253C146.55 235.103 146.85 235.103 154.1 243.203ZM354.1 241.803C333.25 245.353 319.95 262.703 310.15 281.553C305.8 289.953 306.2 290.353 301.6 290.253C293.556 289.798 285.488 290.099 277.5 291.153C271.642 292.029 265.882 293.469 260.3 295.453C247.6 299.953 233.05 314.353 225.3 325.053C225.136 325.273 224.926 325.456 224.686 325.59C224.446 325.723 224.18 325.804 223.906 325.828C223.632 325.852 223.357 325.817 223.097 325.727C222.838 325.636 222.6 325.492 222.4 325.303C206.15 308.553 177.4 279.153 162.95 262.253C162.25 261.503 163.45 260.403 164.15 261.203C173.5 271.203 197.65 295.153 223.55 321.203C232.3 310.053 245.8 296.553 259.15 291.853C266.43 289.256 274.005 287.577 281.7 286.853C288.907 286.306 296.144 286.306 303.35 286.853C306.3 283.453 320.9 244.853 354 240.553C354.097 240.624 354.177 240.716 354.233 240.822C354.29 240.929 354.321 241.046 354.326 241.166C354.331 241.286 354.309 241.406 354.261 241.516C354.213 241.626 354.141 241.725 354.05 241.803H354.1ZM301.35 149.903C311.35 156.903 352.05 217.153 357.35 227.703C348.154 230.617 339.275 234.453 330.85 239.153C322.872 243.153 315.887 248.881 310.403 255.922C304.919 262.963 301.075 271.139 299.15 279.853C281.2 250.653 256.15 218.503 239.5 194.853C240.5 194.203 268.6 151.853 301.35 149.903ZM194.05 199.903C212.3 192.553 222.4 194.253 237.5 194.903C252.5 220.503 279.45 256.603 297.2 280.253C280.818 276.377 263.578 278.748 248.85 286.903C240 291.903 229.2 303.903 222.55 311.353C212.95 303.653 157.55 244.653 148.65 234.653C162.35 219.153 175 207.503 194.05 199.703V199.903ZM102.55 327.053C101.314 326.186 99.8535 325.696 98.3447 325.643C96.8359 325.589 95.3441 325.975 94.0503 326.753C93.108 327.173 92.2578 327.775 91.5481 328.524C90.8384 329.273 90.2831 330.154 89.914 331.117C89.5449 332.081 89.3692 333.107 89.3968 334.139C89.4245 335.17 89.655 336.186 90.0753 337.128C90.4955 338.07 91.0972 338.921 91.846 339.63C92.5948 340.34 93.4761 340.895 94.4395 341.264C95.4029 341.634 96.4296 341.809 97.4609 341.782C98.4922 341.754 99.508 341.523 100.45 341.103C101.955 340.774 103.325 339.995 104.378 338.87C105.43 337.745 106.116 336.326 106.343 334.802C106.571 333.278 106.33 331.721 105.653 330.337C104.975 328.953 103.893 327.808 102.55 327.053ZM99.2503 337.053C95.7503 338.153 93.6503 337.053 92.8003 335.353C91.2003 331.803 93.2003 326.353 98.4003 327.953C102.05 329.303 105 335.453 99.2503 337.303V337.053ZM356.8 98.2532C358.25 101.203 365 100.103 367.95 99.1532C369.5 98.6532 370.5 98.1032 370.65 96.6032C371.1 92.8532 371.6 60.3532 369.9 57.2032C369.725 56.8729 369.455 56.6018 369.126 56.4239C368.797 56.246 368.423 56.1692 368.05 56.2032C362.716 56.1884 357.408 56.9634 352.3 58.5032C350.25 59.7532 355 94.9532 356.8 98.2532ZM353.35 59.7032C357.969 59.0424 362.64 58.8248 367.3 59.0532C367.6 62.7532 366.8 94.8032 366.75 95.3032C364.638 96.0601 362.382 96.3335 360.15 96.1032C359.8 94.9532 359.2 91.8532 358.45 87.9532C356.247 78.6343 354.545 69.2041 353.35 59.7032ZM97.7003 284.853C98.18 285.099 98.7113 285.227 99.2503 285.227C99.7893 285.227 100.321 285.099 100.8 284.853C102.732 283.662 104.264 281.921 105.2 279.853C105.327 279.522 105.367 279.164 105.314 278.814C105.261 278.463 105.119 278.132 104.9 277.853C102.5 275.003 76.3003 244.653 73.1003 246.553C69.1713 249.097 65.4437 251.938 61.9503 255.053C61.8095 255.179 61.6967 255.333 61.6191 255.505C61.5416 255.678 61.5011 255.864 61.5003 256.053C61.4003 258.653 90.5003 281.953 97.7003 284.853ZM73.7003 247.853C77.3503 250.503 89.6503 265.703 101.05 279.153C100.56 279.925 99.9526 280.617 99.2503 281.203C87.2646 273.532 75.8209 265.045 65.0003 255.803C67.7128 252.955 70.6198 250.299 73.7003 247.853ZM152.25 137.553C153.35 118.153 164.65 109.153 176.45 106.853C173.1 119.153 173.65 135.153 185.8 137.203C191.6 138.153 194.45 135.153 198.65 131.653C216.6 116.653 202.1 101.653 181.85 102.703C189.4 82.0032 206.85 65.1532 230 64.6032C230.212 64.6032 230.416 64.5189 230.566 64.3688C230.716 64.2188 230.8 64.0153 230.8 63.8032C230.8 63.591 230.716 63.3875 230.566 63.2375C230.416 63.0874 230.212 63.0032 230 63.0032C205 62.5032 185.35 80.5032 177.6 103.003C164.25 105.303 151 115.303 150.65 137.253C150.631 137.358 150.632 137.466 150.654 137.571C150.676 137.675 150.718 137.775 150.778 137.863C150.839 137.951 150.916 138.026 151.006 138.085C151.095 138.143 151.195 138.183 151.3 138.203C151.405 138.223 151.513 138.222 151.618 138.2C151.722 138.178 151.822 138.135 151.91 138.075C151.998 138.015 152.074 137.937 152.132 137.848C152.19 137.758 152.231 137.658 152.25 137.553ZM180.7 106.253C188.15 105.753 199.25 108.053 202.3 114.803C204.05 118.653 202.3 123.403 196.1 128.603C194.417 130.289 192.497 131.721 190.4 132.853C182.9 136.053 174.6 126.803 180.7 106.253ZM195 813.403C190.17 812.109 185.129 811.795 180.175 812.478C175.221 813.161 170.453 814.828 166.153 817.381C161.853 819.934 158.107 823.322 155.135 827.344C152.164 831.366 150.027 835.943 148.85 840.803C146.629 850.901 148.51 861.468 154.08 870.179C159.65 878.89 168.452 885.032 178.55 887.253C188.648 889.474 199.215 887.593 207.926 882.023C216.637 876.453 222.779 867.651 225 857.553C225.949 852.683 225.924 847.673 224.928 842.812C223.931 837.951 221.982 833.335 219.194 829.231C216.405 825.127 212.831 821.615 208.679 818.899C204.527 816.182 199.878 814.315 195 813.403ZM210.45 854.153C208.444 862.154 203.641 869.174 196.91 873.943C190.179 878.711 181.964 880.914 173.75 880.153C166.21 877.207 159.951 871.696 156.073 864.59C152.195 857.484 150.948 849.238 152.55 841.303C154.421 833.108 159.179 825.859 165.955 820.883C172.73 815.907 181.07 813.536 189.45 814.203C197.065 817.349 203.325 823.08 207.13 830.388C210.935 837.695 212.04 846.111 210.25 854.153H210.45Z" fill="#7064FC"/>
<path d="M261.6 827.652C257.247 826.15 252.582 825.789 248.05 826.602C246.172 822.295 243.86 818.191 241.15 814.352C244.4 811.402 253.3 803.202 251.15 799.352C243.499 790.199 234.414 782.348 224.25 776.102C220.006 773.724 215.333 772.212 210.5 771.652C207.3 772.102 199.7 784.552 198 787.352C196.9 787.352 193 786.102 192.7 785.952C192.7 782.352 191.65 769.352 188.4 767.852C184.766 766.514 180.992 765.591 177.15 765.102C173.6 764.552 141.65 770.402 139.3 774.702C137.75 777.602 141.35 788.552 142.4 791.602C139.704 793.086 137.114 794.757 134.65 796.602C129.65 800.152 131 800.002 130.1 799.602C129.012 799.083 127.847 798.745 126.65 798.602C122.656 796.26 117.973 795.376 113.4 796.102C108.8 797.602 97.9502 822.302 96.2002 828.652C95.6274 830.253 95.4726 831.974 95.7502 833.652C96.9502 836.952 104.95 839.602 108.3 840.652C107.375 847.085 107.375 853.618 108.3 860.052C103.9 861.252 94.7502 863.952 95.2502 868.452C95.7502 872.952 107.45 902.652 112.3 905.002C114.957 906.488 117.895 907.402 120.926 907.686C123.957 907.97 127.013 907.618 129.9 906.652C131.526 905.84 133.096 904.922 134.6 903.902C136.6 905.402 138.7 906.752 140.85 908.052C139.3 911.902 135.85 920.502 136.95 924.402C137.5 926.452 139.15 927.102 141.45 927.952C147.8 930.252 182 938.452 187.2 937.552C189.15 937.252 190.2 935.202 190.8 933.252C191.911 928.814 192.564 924.273 192.75 919.702C195.318 919.448 197.871 919.065 200.4 918.552C201.945 921.269 203.92 923.718 206.25 925.802C208.8 927.602 210.95 926.702 213.85 924.852C215.25 926.652 217.35 929.152 219.6 929.402C225.25 930.052 248.6 908.052 251 903.552C253 899.802 245.7 893.102 242.45 890.152C245.966 884.861 248.726 879.106 250.65 873.052C254.256 873.595 257.906 873.796 261.55 873.652C263.2 873.652 265.1 873.052 265.8 871.502C268.85 864.552 267.95 838.202 265.8 831.502C265.5 829.552 263.25 828.252 261.6 827.652ZM262.8 832.252C264.5 838.752 265.05 863.302 262.55 869.652C258.227 870.078 253.865 869.876 249.6 869.052C249.145 868.974 248.677 869.069 248.288 869.319C247.9 869.569 247.618 869.955 247.5 870.402C245.509 877.162 242.418 883.547 238.35 889.302C238.06 889.683 237.93 890.162 237.986 890.637C238.042 891.113 238.28 891.548 238.65 891.852C242.158 894.632 245.139 898.019 247.45 901.852C244.95 905.952 225.4 923.852 220 925.352C219.2 925.352 217 922.352 216.45 921.552C214.603 918.776 212.933 915.887 211.45 912.902C211.234 912.467 210.862 912.128 210.409 911.952C209.956 911.776 209.453 911.776 209 911.952C194.5 917.402 189 914.202 189 917.802C189.007 923.192 188.128 928.546 186.4 933.652C174.65 932.374 163.079 929.792 151.9 925.952C152.44 920.614 153.93 915.415 156.3 910.602C157.8 907.252 151.8 908.202 140.6 896.802C140.24 896.468 139.766 896.283 139.275 896.283C138.784 896.283 138.311 896.468 137.95 896.802C132.95 900.902 126.45 904.902 125.15 904.252C122.6 903.002 110.85 876.352 110.15 870.952C113.706 868.474 117.744 866.77 122 865.952C122.454 865.823 122.846 865.535 123.104 865.14C123.361 864.744 123.466 864.269 123.4 863.802C122.175 856.721 122.175 849.483 123.4 842.402C123.477 841.966 123.385 841.517 123.144 841.146C122.902 840.775 122.53 840.509 122.1 840.402C118.331 839.414 114.702 837.952 111.3 836.052C110.2 835.252 110.3 835.302 110.4 834.452C113.636 822.78 118.827 811.74 125.75 801.802C128.45 801.052 135.75 806.402 138.25 808.302C138.511 808.555 138.861 808.697 139.225 808.697C139.589 808.697 139.939 808.555 140.2 808.302C142.498 805.919 144.971 803.713 147.6 801.702C155.2 795.952 157.25 796.702 156.6 794.702C154.302 789.685 153.011 784.266 152.8 778.752C153.575 778.107 154.454 777.6 155.4 777.252C160.068 775.406 164.864 773.902 169.75 772.752C175.673 771.101 181.76 770.112 187.9 769.802C188.95 770.252 189.9 774.802 190.15 776.202C192 786.202 190.75 788.252 192.2 788.402C206.45 789.802 209.35 793.752 210.35 792.002C213.123 787.154 216.354 782.583 220 778.352C221.05 777.302 221 776.802 224.15 778.602C233.561 784.751 241.989 792.286 249.15 800.952C249.9 802.252 243.4 809.152 238.65 813.202C237 814.652 239.35 815.302 243.65 823.502C247.95 831.702 246.95 834.002 249.25 833.502C253.684 832.44 258.247 832.019 262.8 832.252ZM956.75 414.452C946.269 410.171 935.277 407.263 924.05 405.802C915.85 404.502 906.2 403.202 898.05 402.152C905.9 391.052 929.15 362.952 933.05 356.102C934.15 354.252 932.05 351.652 930.5 350.102C921.8 340.802 905 337.302 892.1 335.302C884.7 334.102 853.8 330.302 848.55 332.802C842.25 335.802 795.65 405.802 794.25 416.452C794.25 418.252 794.85 418.952 796.6 419.602C803.95 422.302 837.1 426.502 844.5 428.252C834.5 445.752 790.05 504.902 785.7 513.252C784.65 515.352 785.3 516.602 786.55 517.002C791.05 518.788 795.68 520.226 800.4 521.302C802.2 521.852 806.15 519.402 811.9 515.902C837.7 500.402 948.4 427.302 956.9 417.852C957.135 417.63 957.319 417.36 957.44 417.061C957.561 416.762 957.617 416.44 957.602 416.118C957.588 415.795 957.505 415.479 957.358 415.192C957.211 414.904 957.003 414.652 956.75 414.452ZM849.3 474.452C806.8 502.502 792.45 510.702 791.95 511.052C798.8 500.602 841.35 442.302 848.65 428.352C848.777 428.082 848.843 427.788 848.841 427.49C848.84 427.192 848.772 426.898 848.643 426.63C848.513 426.362 848.326 426.125 848.094 425.939C847.861 425.752 847.59 425.62 847.3 425.552C842.3 423.752 805.9 419.852 797.3 416.802C798.4 407.502 843.8 337.202 849.3 334.402C854.8 331.602 908.15 337.952 918.15 345.102C912.9 355.352 883.9 391.252 879.2 399.602C878.25 401.302 877.95 402.952 879.8 403.402C881.65 403.852 928.65 409.352 938.9 412.702C926.4 423.152 863.3 465.052 849.3 474.252V474.452ZM528.55 168.752C528.55 169.202 528.85 169.752 529.6 172.652C529.797 173.281 530.23 173.809 530.808 174.126C531.386 174.443 532.064 174.524 532.7 174.352C533.337 174.166 533.873 173.735 534.192 173.154C534.511 172.573 534.586 171.888 534.4 171.252C533.9 169.302 533.45 167.652 533.15 166.852C532.859 166.303 532.374 165.882 531.789 165.671C531.204 165.461 530.562 165.476 529.987 165.713C529.413 165.95 528.947 166.393 528.682 166.955C528.416 167.517 528.369 168.157 528.55 168.752Z" fill="#7064FC"/>
</svg>
