<svg width="887" height="1123" viewBox="0 0 887 1123" fill="none" xmlns="http://www.w3.org/2000/svg">
<path d="M574.15 136.797H39.4219V1077.63H574.15V136.797Z" fill="white"/>
<path d="M577.497 1080.56H36.4922V133.867H577.497V1080.56ZM42.7683 1074.28H571.22V140.142H42.7683V1074.28Z" fill="#030047"/>
<path d="M542.35 415.824H158.25V814.916H542.35V415.824Z" fill="#5F5FFF"/>
<path d="M120.597 484.849C118.924 484.849 117.25 483.594 117.25 481.503V366.879H219.76C221.434 366.879 223.108 368.134 223.108 370.226C223.108 372.317 221.852 373.572 219.76 373.572H123.526V481.921C123.526 483.594 122.271 484.849 120.597 484.849Z" fill="#030047"/>
<path d="M226.035 864.698H111.391V762.206C111.391 760.533 112.646 758.859 114.738 758.859C116.83 758.859 118.085 760.114 118.085 762.206V858.423H226.453C228.127 858.423 229.801 859.678 229.801 861.77C229.801 863.862 227.709 864.698 226.035 864.698Z" fill="#030047"/>
<path d="M313.478 211.68H126.867V254.768H313.478V211.68Z" fill="white"/>
<path d="M316.41 258.114H123.523V208.75H316.41V258.114ZM129.8 251.838H310.134V215.025H129.8V251.838Z" fill="#030047"/>
<path d="M346.123 253.094C357.214 253.094 366.206 244.103 366.206 233.014C366.206 221.924 357.214 212.934 346.123 212.934C335.031 212.934 326.039 221.924 326.039 233.014C326.039 244.103 335.031 253.094 346.123 253.094Z" fill="#030047"/>
<path d="M22.2659 278.191H3.4375V499.909H22.2659V278.191Z" fill="#5F5FFF"/>
<path d="M25.1985 502.836H0.09375V274.844H25.1985V502.836ZM6.36993 496.561H18.9223V281.119H6.36993V496.561Z" fill="#5F5FFF"/>
<path d="M213.481 568.936C212.644 568.936 211.807 568.517 210.97 567.681L198.418 553.457C197.163 552.202 197.163 550.11 198.837 548.855C200.092 547.6 202.184 547.601 203.439 549.274L215.991 563.497C217.246 564.752 217.247 566.844 215.573 568.099C215.154 568.517 214.318 568.936 213.481 568.936Z" fill="white"/>
<path d="M131.057 648.839C130.22 648.839 129.383 648.421 128.965 648.003C127.71 646.748 127.71 644.656 128.965 643.401L157.835 613.281C159.09 612.026 161.182 612.026 162.438 613.281C163.693 614.536 163.693 616.628 162.438 617.883L133.567 648.003C132.73 648.839 131.894 648.839 131.057 648.839Z" fill="#5F5FFF"/>
<path d="M240.261 755.093C239.006 755.093 237.75 754.256 237.332 753.42L230.219 737.941C229.382 736.268 230.219 734.595 231.892 733.758C233.566 732.921 235.24 733.758 236.077 735.431L243.19 750.91C244.027 752.583 243.19 754.256 241.516 755.093C241.098 754.675 240.679 755.093 240.261 755.093Z" fill="white"/>
<path d="M818.919 898.168L886.702 981.835L733.981 1122.81C733.981 1122.81 715.99 1103.15 727.705 1083.07C733.563 1072.61 739.002 1054.21 740.257 1034.13C740.257 1032.87 740.258 1031.2 740.676 1029.94C741.094 1024.92 741.094 1019.9 740.676 1014.88C740.676 1013.63 740.257 1011.96 740.257 1010.7C739.002 999.405 736.073 988.528 731.052 979.325L818.919 898.168Z" fill="#030047"/>
<path d="M780.007 1009.44C767.036 1011.12 753.647 1013.21 740.676 1015.3C740.676 1014.04 740.258 1012.37 740.258 1011.12C753.228 1009.44 766.199 1007.35 779.17 1005.68C781.68 1005.26 782.517 1009.44 780.007 1009.44Z" fill="white"/>
<path d="M776.245 1032.87C764.529 1033.29 752.395 1033.71 740.68 1034.13C740.68 1032.87 740.68 1031.2 741.098 1029.94C752.813 1029.52 764.947 1029.11 776.663 1028.69C779.173 1028.69 778.755 1032.87 776.245 1032.87Z" fill="white"/>
<path d="M526.454 1002.75L519.341 1110.26H311.391C311.391 1110.26 311.391 1083.91 333.566 1076.8C344.863 1073.45 361.6 1062.99 376.244 1049.6C377.081 1048.77 378.336 1047.93 379.173 1046.68C382.521 1043.33 386.286 1039.56 389.215 1035.8C390.052 1034.54 390.889 1033.71 391.726 1032.45C398.42 1023.25 403.86 1013.21 405.952 1003.17H526.454V1002.75Z" fill="#030047"/>
<path d="M748.631 751.75C727.292 676.45 692.564 466.027 692.564 466.027L572.481 493.638C569.133 481.506 566.623 473.976 566.623 473.976L445.284 520.411C445.284 618.301 390.891 1008.19 390.891 1008.19L548.213 1030.36C548.213 1030.36 566.205 860.099 577.92 729.997C622.271 881.434 697.167 991.875 727.292 1010.7L841.937 916.574C842.355 916.156 769.97 827.051 748.631 751.75Z" fill="white"/>
<path d="M551.141 1033.71L387.125 1010.7L387.543 1007.77C387.962 1004.01 441.937 616.627 441.937 520.41V518.318L568.296 469.791L569.133 473.138C569.133 473.138 571.225 479.831 574.154 490.29L694.656 462.68L695.075 466.026C695.493 468.118 730.221 677.285 751.142 751.749C772.062 825.376 843.61 914.063 844.028 914.9L846.12 917.41L727.292 1014.88L725.2 1013.63C696.33 996.057 624.782 892.728 579.175 746.729C567.459 873.066 551.142 1029.52 550.723 1031.2L551.141 1033.71ZM394.238 1005.26L545.284 1026.18C547.794 1001.91 563.694 847.966 574.573 729.159L576.246 712.844L580.849 728.741C624.782 878.086 696.748 985.18 726.874 1006.1L837.334 915.318C825.618 900.258 764.112 820.356 744.865 752.168C725.2 682.724 693.819 496.146 689.217 469.373L569.552 496.565L568.715 493.637C566.623 486.107 564.949 480.668 564.112 477.321L448.213 522.502C447.794 617.882 399.259 968.447 394.238 1005.26Z" fill="#030047"/>
<path d="M659.505 497.82C658.25 497.82 656.994 496.984 656.576 495.729C654.902 491.964 653.229 488.199 651.555 484.433C650.718 482.76 651.555 481.087 653.229 480.25C654.902 479.413 656.576 480.25 657.413 481.923C659.087 485.688 660.76 489.454 662.434 493.637C663.271 495.31 662.434 496.984 660.76 497.82C660.342 497.402 659.923 497.82 659.505 497.82Z" fill="#030047"/>
<path d="M778.749 903.187C777.494 903.187 776.657 902.769 775.821 901.514C771.636 894.402 767.452 886.454 763.268 878.087C762.431 876.414 763.268 874.74 764.523 873.904C766.197 873.067 767.871 873.904 768.707 875.159C772.892 883.525 777.076 891.055 781.26 898.167C782.097 899.84 781.678 901.514 780.005 902.35C779.586 902.769 779.168 903.187 778.749 903.187ZM754.482 855.915C753.226 855.915 751.971 855.078 751.553 854.242C747.787 846.293 744.44 838.345 740.674 829.978C739.837 828.305 740.674 826.632 742.348 825.795C744.021 824.958 745.695 825.795 746.532 827.468C749.879 835.835 753.645 843.784 756.992 851.732C757.829 853.405 756.992 855.079 755.319 855.915C755.319 855.497 754.9 855.915 754.482 855.915ZM733.979 806.97C732.724 806.97 731.469 806.133 731.05 804.878C728.122 796.93 725.611 788.563 722.682 779.36C722.264 777.687 723.101 776.013 724.774 775.595C726.448 775.177 728.122 776.013 728.54 777.687C731.051 786.472 733.98 795.257 736.49 802.787C736.908 804.46 736.072 806.133 734.816 806.97C734.816 806.552 734.398 806.97 733.979 806.97ZM719.335 755.933C718.08 755.933 716.825 755.096 716.406 753.423C714.314 745.475 712.641 736.69 710.549 727.486C710.13 725.813 711.385 724.14 713.059 723.721C714.733 723.303 716.406 724.558 716.825 726.231C718.917 735.435 720.59 744.22 722.682 752.168C723.101 753.842 721.846 755.515 720.172 755.933C719.754 755.933 719.335 755.933 719.335 755.933ZM708.456 703.641C706.783 703.641 705.528 702.386 705.528 701.131C703.854 692.346 702.18 683.979 700.925 675.194C700.507 673.521 701.762 671.848 703.435 671.43C705.109 671.011 706.783 672.266 707.201 673.94C708.875 682.725 710.13 691.51 711.804 699.876C712.222 701.55 710.967 703.223 709.293 703.641C708.875 703.641 708.875 703.641 708.456 703.641ZM699.251 651.768C697.578 651.768 696.322 650.513 696.322 649.258C694.649 640.473 692.975 631.688 691.72 623.321C691.302 621.648 692.557 619.974 694.23 619.556C695.904 619.138 697.578 620.393 697.996 622.066C699.67 630.851 701.343 639.636 702.599 648.421C703.017 650.095 701.762 651.768 700.088 652.186C699.67 651.768 699.251 651.768 699.251 651.768ZM689.209 599.476C687.954 599.476 686.281 598.639 686.281 596.966C684.189 587.762 682.515 579.396 680.423 571.029C680.004 569.356 681.26 567.682 682.933 567.264C684.607 566.846 686.281 568.101 686.699 569.774C688.791 578.141 690.465 586.507 692.557 595.711C692.975 597.384 691.72 599.058 690.046 599.476C689.628 599.476 689.628 599.476 689.209 599.476ZM676.657 548.021C675.402 548.021 674.147 547.184 673.728 545.929C671.218 537.144 668.707 528.777 665.779 520.829C665.36 519.156 666.197 517.482 667.871 516.646C669.544 516.227 671.218 517.064 672.055 518.737C674.565 526.686 677.494 535.471 680.005 544.256C680.423 545.929 679.586 547.602 677.913 548.021C677.494 547.602 677.075 548.021 676.657 548.021Z" fill="#030047"/>
<path d="M800.51 935.399C799.673 935.399 798.836 934.981 797.999 934.563C797.999 934.563 795.071 931.216 790.05 924.104C789.213 922.849 789.213 920.757 790.887 919.921C792.142 919.084 794.234 919.084 795.071 920.757C799.673 927.451 802.183 930.379 802.602 930.379C803.857 931.634 803.857 933.726 802.183 934.981C801.765 934.981 800.928 935.399 800.51 935.399Z" fill="#030047"/>
<path d="M422.269 1058.39C411.39 1050.86 400.511 1043.33 389.633 1035.8C390.47 1034.54 391.306 1033.71 392.143 1032.45C403.022 1039.98 413.901 1047.51 424.361 1054.62C426.453 1056.3 424.361 1059.64 422.269 1058.39Z" fill="white"/>
<path d="M403.439 1072.61C394.652 1064.66 385.447 1057.13 376.242 1049.19C377.079 1048.35 378.334 1047.51 379.171 1046.26C387.958 1054.21 397.163 1061.74 406.368 1069.27C408.46 1071.78 405.531 1074.7 403.439 1072.61Z" fill="white"/>
<path d="M574.992 701.549C573.737 701.549 572.481 700.713 572.063 699.458C563.276 678.123 553.235 587.762 551.142 571.447C546.958 571.029 536.498 569.355 517.67 565.59C515.996 565.172 514.741 563.499 515.159 561.826C515.578 560.152 517.251 558.897 518.925 559.315C544.448 564.335 554.071 565.59 554.071 565.59L556.582 566.009L557 568.519C557 569.774 568.716 675.194 577.503 697.366C578.339 699.039 577.502 700.713 575.829 701.549C575.829 701.549 575.41 701.549 574.992 701.549Z" fill="#030047"/>
<path d="M484.616 214.184C442.356 228.407 407.21 257.272 416.415 378.59C425.62 499.907 428.13 531.282 428.13 531.282L700.097 492.795C700.097 492.377 620.599 168.167 484.616 214.184Z" fill="#5F5FFF"/>
<path d="M425.2 534.63L424.782 531.284C424.782 530.865 421.853 498.654 413.066 378.591C404.279 262.294 434.823 227.572 483.359 211.257C506.79 203.309 530.221 205.819 552.815 217.951C647.794 270.242 700.932 482.339 703.024 491.542L703.861 494.889L425.2 534.63ZM485.451 217.114C448.631 229.664 410.137 253.091 419.342 378.173C426.873 477.318 429.802 516.642 430.639 527.519L695.911 489.868C688.798 462.258 636.078 271.079 549.886 223.807C528.966 212.094 507.208 210.002 485.451 217.114Z" fill="#5F5FFF"/>
<path d="M597.999 378.593C634.819 378.593 671.22 378.174 708.041 377.756C697.58 297.854 630.216 206.657 521.43 197.035V274.009C558.25 275.264 592.978 333.413 597.999 378.593Z" fill="#5F5FFF"/>
<path d="M595.073 381.52L594.655 378.592C589.634 333.412 555.324 277.773 521.015 276.518H518.086V193.27L521.433 193.688C630.638 203.31 700.513 295.343 710.973 377.337L711.391 380.684H708.044C672.061 381.102 634.822 381.52 598.002 381.52H595.073ZM524.362 270.662C560.345 274.845 594.237 328.81 600.513 375.245C635.241 375.245 669.969 374.827 704.278 374.409C692.563 297.017 626.454 211.258 524.362 200.381V270.662Z" fill="#5F5FFF"/>
<path d="M628.969 109.185L657.421 33.0475C669.136 1.6723 628.132 -13.8062 616.416 17.569L588.383 92.4512C602.19 97.8895 615.58 103.328 628.969 109.185Z" fill="#030047"/>
<path d="M223.529 1115.28C218.09 1113.19 215.58 1106.91 217.672 1101.89L243.195 1037.05C245.287 1031.61 251.563 1029.1 256.584 1031.2C262.023 1033.29 264.533 1039.56 262.441 1044.58L236.918 1109.42C235.245 1114.86 228.969 1117.37 223.529 1115.28Z" fill="#030047"/>
<path d="M343.192 978.065L659.51 130.518C687.962 55.6362 571.225 10.8745 542.773 86.1748L226.455 933.722C212.23 971.372 210.137 1065.08 239.008 1076.37C268.715 1087.67 328.966 1015.72 343.192 978.065Z" fill="white"/>
<path d="M246.12 1080.56C243.61 1080.56 240.681 1080.14 238.589 1079.3C206.79 1067.17 209.3 971.372 223.945 932.885L540.263 85.3379C555.744 44.7594 594.656 38.0661 623.945 49.3612C653.652 60.6562 678.338 91.1947 662.857 131.773L346.539 979.32C339.007 998.982 320.179 1026.17 299.259 1047.93C286.706 1060.9 264.112 1080.56 246.12 1080.56ZM598.003 50.6161C577.083 50.6161 556.162 61.0744 546.12 87.4296L229.802 934.977C214.74 974.718 215.158 1063.82 240.681 1073.45C251.978 1077.63 272.48 1066.75 295.074 1043.33C315.158 1022.83 333.986 995.635 340.681 977.228L656.999 129.682C670.807 92.8681 648.631 65.2577 621.853 55.2177C614.321 52.2894 605.953 50.6161 598.003 50.6161Z" fill="#030047"/>
<path d="M536.078 105L521.852 143.487C560.345 159.384 598.839 175.28 636.914 191.595L651.559 151.854C613.483 135.957 574.99 120.06 536.078 105Z" fill="#030047"/>
<path d="M325.615 1010.28C333.565 998.564 339.841 987.269 343.189 978.065L449.046 694.853C410.553 678.956 372.059 663.477 332.728 649.254L226.452 934.14C223.942 941.252 221.431 950.455 219.758 960.495C254.904 977.647 290.051 994.381 325.615 1010.28Z" fill="#030047"/>
<path d="M683.78 306.641C652.818 322.956 622.274 339.689 594.241 360.606C601.354 387.379 600.517 412.898 586.709 424.611C568.299 440.508 541.939 439.253 515.998 430.468C508.467 387.379 486.291 376.084 462.86 367.299C444.45 360.606 443.194 378.594 471.646 399.929L472.065 409.551C465.37 405.786 459.513 401.603 454.073 397.838C418.927 372.738 415.58 402.021 415.58 402.021C392.567 404.113 399.68 428.376 399.68 428.376C384.617 445.528 387.546 455.15 455.747 505.768C534.408 563.917 682.944 559.315 707.211 424.193C713.906 388.634 705.538 345.546 683.78 306.641Z" fill="white"/>
<path d="M566.206 544.673C526.457 544.673 485.453 532.123 454.073 508.697C405.955 472.72 390.474 458.078 389.219 445.11C388.382 438.416 392.148 432.978 396.332 427.958C395.495 424.193 394.24 414.99 399.261 407.878C402.19 403.276 406.792 400.766 413.487 399.511C414.324 395.746 416.834 389.053 423.528 386.125C431.478 382.36 442.357 385.706 456.165 395.328C460.349 398.256 464.533 401.185 469.135 403.695V401.185C452.399 388.216 444.031 374.411 448.215 366.463C449.47 364.371 453.654 359.769 464.533 363.953C488.801 373.156 511.395 384.869 519.344 427.54C548.215 436.325 570.39 434.651 585.453 421.683C597.169 411.643 599.679 389.053 591.729 360.606L591.311 358.514L592.985 357.259C622.692 335.506 654.909 317.936 682.943 303.294L685.872 302.039L687.545 304.549C709.303 344.291 718.089 387.798 711.395 424.611C699.261 491.545 658.675 520.828 627.294 533.378C607.629 540.909 587.127 544.673 566.206 544.673ZM430.223 391.563C428.55 391.563 426.876 391.981 425.621 392.4C419.763 394.91 418.926 402.858 418.926 402.858L418.508 405.368L415.997 405.786C410.558 406.205 406.374 408.296 404.282 411.643C400.098 417.918 402.608 427.958 402.608 427.958L403.027 429.631L401.771 430.886C396.332 436.743 394.658 440.508 395.077 444.691C396.332 455.15 412.65 470.628 457.42 503.677C503.863 538.398 572.483 548.438 623.529 527.94C653.654 515.808 692.148 488.198 703.863 424.193C710.139 389.471 702.19 348.474 682.106 310.824C655.328 324.629 625.202 341.363 597.169 361.861C605.118 391.981 601.771 415.826 588.382 427.121C571.227 441.763 545.704 443.855 514.323 433.815L512.65 433.396L512.231 431.723C505.118 390.726 485.035 379.849 461.185 371.064C456.164 368.973 453.236 369.809 452.399 371.064C450.725 373.574 454.073 384.451 472.901 398.675L474.156 399.511L474.575 416.245L469.554 413.316C463.277 409.551 457.001 405.368 451.562 401.603C443.194 394.491 435.663 391.563 430.223 391.563Z" fill="#030047"/>
<path d="M430.222 417.08C426.038 413.733 423.109 409.55 421.435 404.111C420.598 401.601 416.833 402.438 417.251 405.366C418.925 411.223 422.272 416.243 426.875 420.008C429.385 421.682 432.314 418.753 430.222 417.08Z" fill="#030047"/>
<path d="M414.743 442.601C409.722 441.346 405.956 437.58 404.701 432.56C403.864 430.05 400.098 430.887 400.517 433.815C402.19 440.09 407.211 445.111 413.488 446.784C416.417 447.202 417.672 443.019 414.743 442.601Z" fill="#030047"/>
<path d="M383.352 553.04C362.013 500.748 356.155 419.173 431.051 336.761C433.98 333.833 436.49 330.904 439 327.976C446.532 293.254 455.737 259.369 471.636 227.157C469.126 223.392 466.616 221.719 466.616 221.719C392.139 255.604 295.067 308.314 267.452 447.62C249.879 534.633 281.26 606.587 326.03 635.871C353.645 653.859 375.82 677.704 391.72 671.429C391.72 671.429 410.967 674.357 423.101 654.696C423.101 654.696 443.184 654.277 441.092 634.615C439.837 624.157 427.703 609.934 415.151 595.292L422.682 590.69C435.653 601.985 462.431 611.189 455.318 590.272C448.205 571.447 425.193 559.315 383.352 553.04Z" fill="white"/>
<path d="M385.866 675.612C374.15 675.612 360.761 665.571 345.698 653.858C339.004 648.838 331.891 643.4 323.941 638.38C280.845 609.933 245.28 539.653 264.109 446.782C290.468 315.007 376.242 259.368 464.945 218.79L466.619 217.953L467.874 218.79C468.293 218.79 470.803 220.882 473.732 225.065L474.987 226.738L474.15 228.411C457.414 262.297 448.627 297.855 441.933 328.394V329.23L441.514 329.649C439.004 332.577 436.493 335.505 433.565 338.852C351.138 430.049 372.058 515.808 385.866 550.111C428.125 556.386 451.138 569.354 457.832 589.434C460.761 598.219 458.251 602.403 455.322 604.495C447.791 609.515 431.473 602.403 421.849 594.873L418.92 596.546C431.473 610.77 442.351 624.156 443.188 634.615C444.025 641.308 442.351 646.746 438.586 650.93C433.983 656.368 426.87 657.623 423.941 658.041C412.644 675.612 395.489 675.193 391.305 675.193C389.632 675.193 387.539 675.612 385.866 675.612ZM465.782 225.483C379.171 265.225 295.908 320.027 269.966 448.037C251.975 537.561 287.121 607.004 327.288 633.36C335.238 638.38 342.351 643.818 349.464 649.256C366.201 661.806 380.427 672.683 390.468 668.918L391.305 668.5H392.142C392.979 668.5 409.715 670.591 420.175 653.021L421.012 651.348H422.686C422.686 651.348 430.217 650.93 434.82 646.328C437.33 643.4 438.167 639.635 437.749 635.033C436.912 625.83 424.778 611.606 412.226 597.383L409.715 594.454L422.686 586.925L424.36 588.598C433.983 596.964 448.209 601.985 451.975 599.475C454.067 598.22 452.812 593.618 451.975 591.945C446.117 573.956 423.523 562.243 383.355 556.386L381.682 555.968L380.845 554.294C366.619 519.991 343.188 430.049 428.962 334.669C431.473 331.74 433.983 329.23 436.075 326.302C442.351 296.182 451.556 261.042 467.874 227.575C467.037 226.738 466.201 225.901 465.782 225.483Z" fill="#030047"/>
<path d="M388.377 399.511C398.001 379.013 411.808 365.208 431.055 344.291C433.984 341.363 437.749 344.291 440.26 340.944C447.791 306.222 455.323 258.951 471.222 227.157C468.712 223.392 466.201 221.719 466.201 221.719C417.247 243.891 358.252 274.847 315.992 332.996C339.423 355.586 364.109 377.339 388.377 399.511Z" fill="#5F5FFF"/>
<path d="M389.632 404.53L386.703 401.602C381.683 397 376.662 392.817 372.059 388.215C352.812 371.064 333.147 353.075 314.319 335.087L312.227 332.995L313.9 330.903C355.323 274.428 410.971 243.472 465.365 218.79L467.038 217.953L468.293 218.79C468.712 218.79 471.222 220.882 474.151 225.065L475.406 226.738L474.57 228.411C461.599 254.767 454.068 291.162 447.373 323.374C446.118 329.649 444.863 335.505 443.607 341.362V342.199L443.189 342.617C441.097 345.127 438.168 345.127 436.494 345.127C434.821 345.127 434.402 345.127 433.984 345.545C431.473 348.055 429.381 350.565 426.871 353.075C411.39 370.227 400.093 382.359 391.724 399.929L389.632 404.53ZM320.176 332.577C338.168 350.147 357.415 367.298 375.825 383.614C379.591 386.96 383.775 390.725 387.54 394.072C395.909 377.757 407.624 365.207 421.85 349.31C423.942 346.8 426.453 344.29 428.963 341.78C431.474 339.27 433.984 339.27 436.076 339.27C436.913 339.27 437.331 339.27 437.75 339.27C439.005 333.832 439.842 328.393 441.097 322.537C447.373 290.743 454.904 254.348 467.875 227.575C467.038 226.738 466.62 225.901 465.783 225.483C413.482 249.328 359.925 279.03 320.176 332.577Z" fill="#5F5FFF"/>
<path d="M420.594 652.183C412.226 636.705 402.603 621.644 391.724 607.421C390.05 605.329 386.285 607.421 387.958 609.513C398.837 623.736 408.042 638.378 416.829 654.275C418.502 656.785 421.85 654.693 420.594 652.183Z" fill="#030047"/>
<path d="M396.323 666.825C388.791 649.255 377.495 634.195 362.013 622.9C359.921 621.226 357.829 624.991 359.921 626.665C374.566 637.123 385.444 651.346 392.557 668.08C393.394 670.172 397.16 669.335 396.323 666.825Z" fill="#030047"/>
<path d="M414.319 349.311C412.645 349.311 411.39 348.056 411.39 346.801L407.206 322.538C406.788 320.864 408.043 319.191 409.716 318.772C411.39 318.354 413.064 319.609 413.482 321.283L417.666 345.546C418.085 347.219 416.829 348.893 415.156 349.311C414.319 349.311 414.319 349.311 414.319 349.311Z" fill="#030047"/>
<path d="M189.635 1117.37C188.798 1117.37 187.543 1116.96 187.125 1116.12L112.229 1009.44C111.393 1008.19 111.393 1006.1 113.066 1005.26C114.321 1004.42 116.413 1004.42 117.25 1006.1L192.146 1112.77C192.982 1114.03 192.982 1116.12 191.309 1116.96C190.89 1117.37 190.054 1117.37 189.635 1117.37Z" fill="#5F5FFF"/>
<path d="M158.253 1117.37C157.835 1117.37 156.998 1117.37 156.579 1116.96L102.186 1080.14C100.931 1079.31 100.513 1077.21 101.349 1075.96C102.186 1074.7 104.278 1074.29 105.533 1075.12L159.927 1111.94C161.182 1112.77 161.6 1114.86 160.763 1116.12C160.345 1116.96 159.508 1117.37 158.253 1117.37Z" fill="#5F5FFF"/>
<path d="M501.351 143.908C500.932 129.266 486.288 120.481 469.97 128.429C467.459 129.684 465.367 131.358 462.857 133.449C462.857 133.449 462.857 133.449 462.439 133.031C439.426 108.768 403.024 105.421 381.267 125.919C359.51 146.418 364.531 179.466 382.941 207.494C400.096 232.594 435.66 245.981 464.112 214.606C473.317 204.148 478.757 190.343 479.175 176.119C494.238 171.518 501.351 156.876 501.351 143.908Z" fill="white"/>
<path d="M427.292 236.359C426.037 236.359 425.2 236.359 423.945 236.359C407.209 235.104 391.309 225.063 380.849 209.585C359.092 177.373 358.673 143.906 379.594 124.244C390.891 113.786 405.953 108.766 422.271 110.021C437.753 111.276 451.978 118.388 463.276 129.683C464.949 128.428 467.041 127.173 468.715 126.336C477.502 121.734 486.707 121.734 493.82 125.918C500.096 129.683 504.28 136.376 504.28 144.325C504.698 156.875 498.004 172.772 482.104 179.047C481.267 193.27 475.828 206.657 466.623 217.115C452.397 232.593 437.753 236.359 427.292 236.359ZM416.414 115.878C403.862 115.878 392.146 120.479 383.359 128.428C360.765 149.763 370.389 183.23 385.451 205.82C395.075 220.043 409.301 228.828 423.945 229.665C437.753 230.502 450.723 224.645 461.602 212.513C470.389 202.892 475.409 189.923 475.828 176.118V174.026L477.92 173.19C491.727 168.588 498.004 154.783 497.585 143.906C497.585 138.468 494.656 133.448 490.054 130.938C484.615 127.591 477.502 128.009 470.807 131.356C468.715 132.611 466.623 133.866 464.112 135.958L462.02 138.05L459.928 135.958C449.05 124.663 435.242 117.551 420.598 116.296C419.761 115.878 418.087 115.878 416.414 115.878Z" fill="#030047"/>
<path d="M418.59 179.879C419.534 177.77 418.59 175.295 416.481 174.351C414.372 173.406 411.897 174.35 410.952 176.459C410.008 178.568 410.952 181.043 413.061 181.987C415.17 182.931 417.646 181.987 418.59 179.879Z" fill="#030047"/>
<path d="M404.7 212.097C399.261 204.567 395.077 196.2 391.73 187.415C390.893 184.905 394.659 183.232 395.496 185.742C398.424 194.108 402.608 202.057 407.629 209.587C409.721 211.678 406.374 214.188 404.7 212.097Z" fill="#030047"/>
<path d="M375.826 161.06C388.378 156.458 426.872 122.991 441.517 147.255C445.282 153.53 445.282 158.55 452.395 156.877C459.09 153.948 457.835 145.581 457.835 145.581C462.855 138.47 464.529 131.358 469.969 128.43C485.031 104.166 447.793 74.0463 426.872 92.0347C426.872 92.0347 380.429 80.7394 367.039 109.605C343.19 119.226 334.403 137.633 339.424 154.785C348.211 184.068 375.826 161.06 375.826 161.06Z" fill="#030047"/>
<path d="M467.043 158.551C466.625 148.511 472.901 139.726 482.525 136.798C485.035 135.961 486.709 140.145 484.198 140.563C476.667 142.655 471.227 149.766 471.646 157.715C471.227 161.061 467.043 161.48 467.043 158.551Z" fill="#030047"/>
</svg>
