<svg width="1000" height="1001" viewBox="0 0 1000 1001" fill="none" xmlns="http://www.w3.org/2000/svg">
<path fill-rule="evenodd" clip-rule="evenodd" d="M580.95 937.849C591.95 927.199 628.6 887.849 640.45 878.649C640.813 878.26 641.302 878.013 641.831 877.95C642.359 877.888 642.893 878.015 643.336 878.309C643.78 878.603 644.105 879.044 644.254 879.555C644.403 880.065 644.366 880.612 644.15 881.099C638.25 891.749 586.8 940.099 583.8 942.949C581.75 945.499 572.95 956.099 570.55 958.299C570.625 960.29 570.103 962.258 569.052 963.951C568.001 965.643 566.468 966.983 564.65 967.799C558.209 969.985 551.898 972.539 545.75 975.449C544.85 976.249 543.8 975.449 544.05 974.599C547.132 970.736 549.718 966.503 551.75 961.999C552.188 959.018 553.701 956.301 556.003 954.358C558.305 952.415 561.238 951.38 564.25 951.449C564.6 950.799 577.85 939.899 580.95 937.849ZM564.1 952.249C561.399 952.405 558.843 953.526 556.898 955.407C554.953 957.287 553.747 959.804 553.5 962.499C552.373 965.89 550.682 969.068 548.5 971.899C561.15 966.649 565.45 967.399 568.2 963.149C569.07 961.736 569.616 960.148 569.8 958.499C566.3 957.549 563.85 951.649 564.1 952.249ZM579.95 939.699C576.05 943.249 572 947.049 566.05 952.199C566.924 953.936 568.233 955.418 569.85 956.499L582.9 942.549C581.748 941.807 580.761 940.837 580 939.699H579.95ZM557.7 880.799C563.4 877.049 640.75 826.149 641.5 828.649C642.25 831.149 565.6 889.149 564.95 889.549C561.7 893.249 539.95 916.699 537.1 917.699C533.473 917.565 530.037 916.044 527.5 913.449C524.023 909.893 521.451 905.555 520 900.799C519.05 897.399 554.6 882.099 557.7 880.799ZM522.45 903.049C523.434 906.218 525.215 909.083 527.622 911.368C530.03 913.652 532.983 915.281 536.2 916.099C532.6 912.699 525 905.449 522.45 903.049ZM537.45 891.499C531.96 894.116 526.693 897.176 521.7 900.649C522.35 902.799 521.7 900.649 526.7 904.799C530.758 907.982 534.315 911.758 537.25 915.999C539.75 914.149 549.9 904.049 549.3 904.599C545.552 900.007 541.546 895.634 537.3 891.499H537.45ZM557.9 881.499C549.65 885.349 544.15 888.049 537.9 891.099C542.86 894.267 546.882 898.703 549.55 903.949C552.55 900.949 562.75 890.599 564.25 888.949C562.8 887.549 559 883.199 557.75 881.599L557.9 881.499ZM679.05 824.349C681.6 801.949 685.35 774.099 688.4 773.949C691.45 773.799 688.15 801.949 685 824.499C695 825.349 706.9 830.849 705 840.349C705.09 842.041 704.87 843.736 704.35 845.349C709.35 879.299 704.9 886.299 705.25 885.749C702.337 889.255 698.694 892.083 694.574 894.035C690.455 895.987 685.958 897.016 681.4 897.049C676.823 897.072 672.293 896.122 668.112 894.26C663.931 892.397 660.194 889.667 657.15 886.249C653 879.999 655.65 853.599 656.45 846.249C656.007 844.702 655.755 843.107 655.7 841.499C655.097 838.869 655.438 836.111 656.662 833.707C657.887 831.303 659.918 829.406 662.4 828.349C667.514 825.606 673.248 824.228 679.05 824.349ZM703.4 868.249C699.45 876.349 688.4 878.899 679.5 878.899C679.379 881.296 679.112 883.684 678.7 886.049C678.3 887.949 677.85 889.599 675.9 889.549C673.086 888.979 670.608 887.327 669 884.949C667.7 882.999 668 881.999 669.65 877.699C667.484 877.133 665.467 876.102 663.74 874.677C662.013 873.252 660.617 871.468 659.65 869.449C659.671 873.915 660.123 878.369 661 882.749C662.054 884.737 663.562 886.45 665.4 887.749C676.7 896.949 690.4 894.349 701.85 884.499C702.35 880.799 703.05 873.549 703.4 868.249ZM657.5 848.249C657.15 854.299 655.8 879.849 659.2 884.849C661.816 887.89 665.126 890.256 668.85 891.749C664.947 889.843 661.77 886.719 659.8 882.849C658.94 877.494 658.655 872.064 658.95 866.649C658.634 865.132 658.692 863.561 659.119 862.071C659.546 860.581 660.329 859.218 661.4 858.099C664.95 853.999 665.8 856.349 662.55 854.099C660.424 852.664 658.688 850.722 657.5 848.449V848.249ZM670.95 877.749C670.344 879.369 669.892 881.043 669.6 882.749C669.6 884.449 674.1 888.249 676.1 888.049C676.8 888.049 677 886.999 677.25 885.749C677.693 883.486 677.994 881.199 678.15 878.899C675.722 878.851 673.307 878.532 670.95 877.949V877.749ZM703.75 847.049C702.033 850.217 699.402 852.796 696.2 854.449C701.95 856.249 705.75 860.099 704.2 865.949C704.2 869.099 704.2 872.199 703.9 874.999C703.4 885.449 703.05 884.999 703.55 884.249C705.9 875.349 704.7 856.649 703.75 847.249V847.049ZM695.35 854.899C690.673 857.162 685.546 858.341 680.35 858.349C680.357 861.336 679.97 864.312 679.2 867.199C679.402 870.529 679.402 873.868 679.2 877.199C685.462 877.413 691.655 875.834 697.05 872.649C705 867.649 706.25 858.599 695.35 855.099V854.899ZM674.7 867.399C674.4 868.099 671.9 875.049 671.45 876.299C673.693 876.845 675.992 877.13 678.3 877.149C678.3 874.699 678.8 869.999 678.75 867.549C677.418 867.841 676.039 867.858 674.7 867.599V867.399ZM665.35 855.799C655.75 862.399 659.8 872.899 670.35 876.099C671.4 873.449 673.05 869.749 674.25 867.199C674.388 864.213 674.722 861.24 675.25 858.299C671.831 858.037 668.483 857.192 665.35 855.799ZM675.7 858.349L675.25 866.449C676.1 866.449 678.85 866.849 678.55 866.449C678.25 866.049 679.2 861.749 679.55 858.449C678.25 858.549 676.95 858.499 675.7 858.399V858.349ZM702.9 845.099C694 856.249 667.1 856.399 657.9 845.099C658.872 847.605 660.472 849.818 662.548 851.526C664.624 853.233 667.104 854.378 669.75 854.849C681.15 857.949 698.3 855.449 702.9 845.149V845.099ZM684.25 829.699C682.75 840.049 681.45 848.449 681 851.199C688.55 851.199 698.65 848.449 702.15 842.349C701.05 834.549 692.15 830.499 684.25 829.749V829.699ZM678.45 829.699C674.322 829.902 670.325 831.211 666.876 833.489C663.428 835.768 660.656 838.931 658.85 842.649C662.05 847.649 670.1 850.399 676.3 850.999C676.55 848.249 677.35 839.949 678.45 829.749V829.699ZM678.95 825.299C673.5 825.497 668.188 827.062 663.5 829.849C659.05 832.699 656.05 837.099 658.5 841.849C660.206 837.91 662.986 834.531 666.524 832.099C670.061 829.667 674.211 828.281 678.5 828.099L678.95 825.299ZM685 825.799C685 826.649 684.75 827.499 684.6 828.349C692.85 829.099 701.5 833.349 702.85 841.349C704.65 836.799 701.65 832.699 697.45 830.049C693.655 827.752 689.408 826.302 685 825.799ZM732.9 846.099C730.55 834.449 711.55 747.649 717.9 742.599C720.155 741.356 722.608 740.51 725.15 740.099C732.15 738.599 776.8 732.599 778.85 738.649C780.9 744.699 768.85 836.849 767.95 841.799C767.95 845.149 766.7 854.499 766.7 854.499C765.402 857.21 763.48 859.575 761.09 861.399C758.701 863.223 755.913 864.454 752.955 864.99C749.998 865.527 746.955 865.355 744.077 864.487C741.199 863.619 738.568 862.081 736.4 859.999C734.731 855.507 733.557 850.846 732.9 846.099ZM776.3 749.749C757.153 750.004 738.051 751.675 719.15 754.749C720.7 775.749 729.8 824.749 733.75 845.649C738.955 848.495 744.888 849.734 750.797 849.209C756.707 848.684 762.328 846.418 766.95 842.699C767.5 838.449 775.9 755.349 776.3 749.749ZM771.8 778.749C771.8 778.749 772.1 775.349 767.9 776.199C763.7 777.049 756.05 784.249 746.65 783.449C737.25 782.649 728.3 777.399 725.5 780.899C722.7 784.399 734.55 795.449 749.9 792.849C767.5 789.899 772.15 782.649 771.8 778.749ZM722.3 743.249C721.55 743.249 719.5 744.049 719.3 744.699C718.874 747.868 718.874 751.08 719.3 754.249L724.3 753.299C723.169 750.058 722.496 746.675 722.3 743.249ZM730.95 741.399C728.4 741.849 725.4 742.399 722.95 743.049C723.693 746.347 724.244 749.686 724.6 753.049C726.5 752.699 731.8 751.799 733.35 751.649C733.2 751.299 732 747.149 730.95 741.399ZM740.5 740.149C737.35 740.499 734.35 740.899 731.6 741.299C732.824 744.643 733.565 748.145 733.8 751.699L742.2 750.649C741.9 748.999 740.85 743.799 740.5 740.149ZM749.85 739.249C748.15 739.249 744.55 739.649 741.15 740.049C742.202 743.466 742.725 747.023 742.7 750.599L751.7 749.749C751.55 748.899 750.5 744.399 750 739.249H749.85ZM759.85 738.599L750.5 739.199C751.578 742.596 752.151 746.134 752.2 749.699C755.1 749.699 758.3 749.299 761.15 749.199C761.15 749.099 760 739.249 760 738.599H759.85ZM771.95 738.599C771.77 742.101 771.386 745.591 770.8 749.049H776.35C776.35 747.799 777.2 739.399 776.35 739.049C774.901 738.763 773.427 738.629 771.95 738.649V738.599ZM771.3 738.599H760.55C761.517 742.044 761.889 745.628 761.65 749.199H770.35C770.2 745.639 770.519 742.075 771.3 738.599ZM395 807.449C401.55 807.449 406.9 809.849 406.9 812.899C406.9 815.949 401.55 818.349 395 818.349C388.45 818.349 383.15 815.899 383.15 812.899C383.15 809.899 388.25 807.449 395 807.449ZM268.6 778.649C268.6 779.749 266.55 780.749 263.95 780.849C261.35 780.949 258.95 780.099 258.95 778.949C259.05 776.299 268.5 775.799 268.6 778.649Z" fill="#7064FC"/>
<path d="M315.95 904.845C319.153 904.845 321.75 903.301 321.75 901.395C321.75 899.49 319.153 897.945 315.95 897.945C312.747 897.945 310.15 899.49 310.15 901.395C310.15 903.301 312.747 904.845 315.95 904.845Z" fill="#7064FC"/>
<path fill-rule="evenodd" clip-rule="evenodd" d="M565.65 735.793C570.65 735.793 574.95 737.243 574.95 738.993C574.95 740.743 570.8 742.243 565.65 742.243C560.5 742.243 556.4 740.793 556.4 738.993C556.4 737.193 560.55 735.793 565.65 735.793ZM247.3 608.143C247.3 609.393 246.55 618.843 246.95 632.643C246.95 634.493 247.3 640.793 247.3 640.793C247.3 640.793 247.9 641.143 247.9 640.793C247.9 640.443 248.2 634.493 248.25 632.643C248.55 621.143 247.9 607.643 247.9 608.143C247.9 608.063 247.868 607.987 247.812 607.93C247.756 607.874 247.68 607.843 247.6 607.843C247.52 607.843 247.444 607.874 247.388 607.93C247.332 607.987 247.3 608.063 247.3 608.143ZM455.55 61.7926C461.8 63.4926 472.85 67.0426 476.85 72.1926C476.994 72.3816 477.072 72.6121 477.074 72.8495C477.076 73.0869 477.001 73.3186 476.86 73.5098C476.72 73.7011 476.521 73.8418 476.294 73.9108C476.067 73.9797 475.823 73.9734 475.6 73.8926C455.6 65.7426 423.75 76.1426 403.55 84.5426C395.55 87.8926 443.55 33.7426 478.05 42.2426C478.286 42.3145 478.492 42.4602 478.639 42.6582C478.785 42.8562 478.865 43.0962 478.865 43.3426C478.865 43.589 478.785 43.8289 478.639 44.027C478.492 44.225 478.286 44.3707 478.05 44.4426C470.208 46.2817 462.506 48.6709 455 51.5926C460.75 51.8426 474 52.6926 478.45 56.5926C478.626 56.7451 478.754 56.9458 478.819 57.17C478.883 57.3942 478.88 57.6323 478.811 57.855C478.742 58.0778 478.61 58.2757 478.43 58.4244C478.251 58.5732 478.032 58.6664 477.8 58.6926C470.335 59.3412 462.908 60.376 455.55 61.7926ZM472.15 43.6426C462.329 43.6067 452.671 46.159 444.15 51.0426C428.903 59.1319 415.329 70.0416 404.15 83.1926C423.3 74.8926 450.55 65.4926 471 70.1926C464.55 66.8978 457.689 64.4766 450.6 62.9926C450.342 62.9379 450.111 62.7964 449.945 62.5916C449.779 62.3868 449.688 62.1312 449.688 61.8676C449.688 61.604 449.779 61.3484 449.945 61.1436C450.111 60.9388 450.342 60.7973 450.6 60.7426C458.218 58.69 465.995 57.285 473.85 56.5426C466.182 54.7344 458.328 53.8282 450.45 53.8426C450.193 53.8499 449.942 53.7712 449.735 53.6189C449.528 53.4666 449.378 53.2495 449.309 53.0022C449.24 52.7549 449.256 52.4916 449.354 52.2543C449.452 52.0169 449.627 51.8192 449.85 51.6926C456.958 48.1826 464.439 45.4824 472.15 43.6426ZM134.5 461.893C129.527 462.544 124.515 462.845 119.5 462.793C119.245 462.803 118.995 462.724 118.792 462.57C118.589 462.416 118.445 462.196 118.386 461.948C118.327 461.7 118.356 461.439 118.468 461.21C118.58 460.981 118.768 460.798 119 460.693C125.2 457.343 139.8 454.043 147.3 448.843L165.85 436.443C165.888 436.4 165.934 436.366 165.985 436.343C166.037 436.319 166.093 436.307 166.15 436.307C166.207 436.307 166.263 436.319 166.315 436.343C166.366 436.366 166.412 436.4 166.45 436.443C167 437.093 165.85 437.143 159.6 445.393C155.451 450.502 152.081 456.197 149.6 462.293C146.919 468.668 144.566 475.176 142.55 481.793C142.55 483.293 138.95 484.393 139.95 476.193C140.364 473.133 140.931 470.096 141.65 467.093C136.463 470.838 130.997 474.181 125.3 477.093C125.095 477.211 124.858 477.262 124.623 477.241C124.387 477.219 124.164 477.125 123.983 476.972C123.803 476.819 123.674 476.614 123.614 476.385C123.555 476.156 123.567 475.914 123.65 475.693C126.207 470.35 129.912 465.638 134.5 461.893ZM162.8 439.743C138.3 456.993 149.25 450.743 124.8 460.493C129.479 460.482 134.13 459.774 138.6 458.393L139.15 457.943C140.25 457.093 142.2 458.793 140.05 460.193C135.244 463.971 131.001 468.416 127.45 473.393C132.987 470.559 138.173 467.085 142.9 463.043C143.076 462.838 143.318 462.702 143.584 462.658C143.85 462.614 144.124 462.665 144.356 462.802C144.588 462.939 144.765 463.153 144.855 463.408C144.946 463.662 144.944 463.94 144.85 464.193C143.816 467.963 142.981 471.785 142.35 475.643C146.302 462.257 153.302 449.969 162.8 439.743ZM166.2 416.393C174.679 402.654 186.792 391.527 201.2 384.243C220.6 375.093 227.7 384.843 218.9 402.343C211.407 416.323 200.695 428.319 187.65 437.343C189.119 442.473 189.71 447.815 189.4 453.143C188.1 458.143 163.65 466.543 160.3 466.143C160.046 466.131 159.8 466.05 159.589 465.909C159.378 465.768 159.209 465.572 159.1 465.343C158.6 464.193 159.75 463.143 160.85 462.293C166.954 457.834 173.352 453.791 180 450.193L179.65 441.893L176.8 443.293C176.614 443.344 176.418 443.343 176.233 443.29C176.048 443.237 175.881 443.134 175.75 442.993L160 427.643C159.926 427.56 159.885 427.453 159.885 427.343C159.885 427.232 159.926 427.125 160 427.043C160 427.043 160.5 425.993 161.55 424.143H152.8C151.5 426.843 142.8 444.443 140 445.643C139.799 445.74 139.577 445.788 139.354 445.782C139.131 445.776 138.912 445.716 138.716 445.609C138.52 445.501 138.353 445.348 138.229 445.163C138.104 444.977 138.026 444.765 138 444.543C137.4 440.793 144.8 416.343 149.7 414.893C155.141 414.392 160.626 414.764 165.95 415.993C166.029 416.024 166.095 416.08 166.14 416.152C166.185 416.224 166.206 416.308 166.2 416.393ZM186.55 437.693C184.565 439.016 182.512 440.234 180.4 441.343L181.45 450.793C181.45 451.543 181.45 451.093 171.45 457.693C168.4 459.643 165.3 461.693 163.2 463.243C170.787 461.152 178.103 458.182 185 454.393C185.55 454.043 187 453.043 187.2 452.393C187.728 447.488 187.509 442.531 186.55 437.693ZM164.5 421.343C162.55 424.243 161.35 426.343 160.9 427.193L176.4 441.543C178.2 440.643 180.15 439.543 182.2 438.293C175.742 433.256 169.812 427.577 164.5 421.343ZM165.75 417.093C160.592 416.361 155.358 416.361 150.2 417.093C148.45 417.693 145.45 425.643 144.9 427.093C143.134 431.8 141.714 436.629 140.65 441.543C143.65 437.093 151.85 422.543 151.5 423.243C151.568 423.103 151.675 422.986 151.808 422.906C151.941 422.826 152.095 422.787 152.25 422.793L162 423.293C163 421.393 164.2 419.443 165.75 417.093ZM193.3 391.143C181.966 398.835 172.334 408.774 165 420.343C171.639 425.44 177.708 431.24 183.1 437.643C194.51 430.123 204.301 420.4 211.9 409.043L193.3 391.143ZM184.35 403.693C183.388 404.701 182.634 405.888 182.131 407.187C181.628 408.487 181.386 409.872 181.418 411.265C181.451 412.658 181.757 414.031 182.32 415.305C182.884 416.58 183.692 417.731 184.7 418.693C185.708 419.655 186.895 420.409 188.195 420.912C189.494 421.415 190.88 421.657 192.272 421.624C193.665 421.592 195.038 421.285 196.313 420.722C197.587 420.159 198.738 419.351 199.7 418.343C201.643 416.307 202.697 413.583 202.632 410.77C202.566 407.957 201.386 405.285 199.35 403.343C197.314 401.4 194.591 400.345 191.778 400.411C188.964 400.477 186.293 401.657 184.35 403.693ZM198.3 404.493C199.91 406.145 200.81 408.361 200.81 410.668C200.81 412.974 199.91 415.19 198.3 416.843C196.722 418.306 194.645 419.113 192.492 419.097C190.34 419.082 188.274 418.245 186.718 416.759C185.161 415.272 184.23 413.248 184.115 411.098C184.001 408.949 184.71 406.836 186.1 405.193C187.647 403.519 189.783 402.51 192.059 402.38C194.334 402.249 196.572 403.007 198.3 404.493ZM195.55 407.343C196.231 408.049 196.689 408.94 196.867 409.905C197.045 410.87 196.935 411.865 196.552 412.768C196.168 413.671 195.527 414.441 194.709 414.983C193.89 415.524 192.931 415.812 191.95 415.812C190.969 415.812 190.01 415.524 189.191 414.983C188.373 414.441 187.732 413.671 187.348 412.768C186.965 411.865 186.855 410.87 187.033 409.905C187.211 408.94 187.669 408.049 188.35 407.343C188.816 406.859 189.376 406.474 189.994 406.211C190.613 405.948 191.278 405.812 191.95 405.812C192.622 405.812 193.287 405.948 193.906 406.211C194.524 406.474 195.084 406.859 195.55 407.343Z" fill="#7064FC"/>
<path fill-rule="evenodd" clip-rule="evenodd" d="M353.85 67.7442C353.393 67.3563 353.034 66.8657 352.803 66.3126C352.572 65.7595 352.475 65.1595 352.52 64.5617C352.565 63.9639 352.75 63.3852 353.062 62.8729C353.373 62.3606 353.801 61.9293 354.311 61.6142C354.821 61.2991 355.399 61.1091 355.996 61.0598C356.594 61.0104 357.194 61.1032 357.749 61.3304C358.304 61.5576 358.797 61.9129 359.188 62.3672C359.579 62.8215 359.858 63.3618 360 63.9442C360.036 64.5735 359.923 65.2025 359.67 65.7797C359.416 66.357 359.03 66.8663 358.543 67.266C358.055 67.6657 357.48 67.9445 356.865 68.0798C356.249 68.215 355.61 68.2028 355 68.0442C355 68.5442 354.25 74.0942 352.75 80.5942C359.697 80.6207 366.404 83.1401 371.65 87.6942C371.726 87.5548 371.851 87.4481 372 87.3942C411 81.8942 415.05 94.7942 402.5 105.144C388.4 116.794 345.1 130.144 321.2 126.994C314.95 126.244 305.25 123.344 305.15 117.444C305.15 109.844 325.5 101.394 326.3 100.994C329.559 92.7395 335.858 86.0475 343.9 82.2942C340.35 78.4442 336.65 72.8442 335.8 71.8942C331.55 74.1942 327.55 68.7442 330.8 65.9442C331.516 65.3165 332.449 64.9936 333.4 65.0442C334.193 64.8837 335.017 64.9949 335.738 65.3599C336.46 65.7248 337.038 66.3223 337.379 67.0559C337.72 67.7895 337.804 68.6165 337.617 69.4035C337.43 70.1906 336.984 70.8918 336.35 71.3942C338.032 72.606 339.531 74.0542 340.8 75.6942C348 84.3942 341.9 81.3942 350.8 80.6942C351.065 76.2343 352.096 71.8534 353.85 67.7442ZM325.45 102.394C320.95 104.594 306.45 112.394 306.65 117.394C306.65 119.044 308.1 120.694 310.75 122.144C329.35 132.144 384.7 116.444 400.75 103.394C409.9 96.0442 408.95 88.9942 391.55 87.7442C384.878 87.4419 378.192 87.6425 371.55 88.3442C370.3 91.2442 358.25 114.044 325.45 102.394ZM320.45 114.294C320.232 114.757 320.114 115.26 320.104 115.771C320.093 116.282 320.19 116.79 320.388 117.261C320.586 117.733 320.88 118.157 321.253 118.508C321.625 118.858 322.067 119.126 322.55 119.294C323.029 119.414 323.528 119.437 324.016 119.364C324.505 119.29 324.974 119.12 325.397 118.865C325.819 118.609 326.188 118.273 326.48 117.874C326.772 117.476 326.983 117.024 327.1 116.544C327.398 115.662 327.334 114.698 326.922 113.864C326.509 113.029 325.782 112.393 324.9 112.094C324.018 111.796 323.054 111.86 322.219 112.273C321.385 112.685 320.748 113.412 320.45 114.294ZM324.55 112.894C326.75 113.894 325.25 117.894 323.15 117.294C321.05 116.694 322.15 112.444 324.55 112.894ZM359.05 110.044C358.696 109.781 358.288 109.6 357.856 109.515C357.423 109.43 356.977 109.444 356.55 109.554C356.123 109.664 355.726 109.869 355.389 110.153C355.051 110.437 354.782 110.792 354.6 111.194C354.216 112.09 354.178 113.097 354.492 114.02C354.805 114.943 355.45 115.717 356.3 116.194C356.706 116.446 357.163 116.603 357.638 116.655C358.113 116.706 358.594 116.651 359.044 116.493C359.495 116.335 359.905 116.077 360.243 115.74C360.582 115.403 360.84 114.994 361 114.544C361.28 113.685 361.237 112.754 360.878 111.925C360.519 111.096 359.868 110.427 359.05 110.044ZM358.65 110.744C360.65 112.244 359.35 115.744 357.25 114.544C355.15 113.344 356.25 109.744 358.65 110.794V110.744ZM385.4 96.4442C385.109 96.1722 384.761 95.9691 384.381 95.8502C384.001 95.7312 383.599 95.6993 383.206 95.757C382.812 95.8146 382.436 95.9603 382.106 96.1831C381.776 96.406 381.501 96.7003 381.3 97.0442C380.913 97.8446 380.832 98.7587 381.071 99.6149C381.311 100.471 381.854 101.21 382.6 101.694C382.933 101.966 383.323 102.16 383.74 102.262C384.157 102.365 384.592 102.374 385.013 102.288C385.435 102.201 385.831 102.023 386.175 101.764C386.518 101.506 386.8 101.175 387 100.794C387.184 100.404 387.289 99.9813 387.308 99.5503C387.327 99.1193 387.261 98.6887 387.112 98.2838C386.963 97.8789 386.735 97.5077 386.441 97.1919C386.147 96.876 385.793 96.6219 385.4 96.4442ZM385 97.0942C386.5 98.4942 385.45 101.294 383.7 100.094C381.95 98.8942 382.95 96.0942 385 97.0942ZM333.4 65.7942C334.047 65.818 334.662 66.0824 335.124 66.5355C335.586 66.9886 335.863 67.5979 335.9 68.2442C335.874 68.8234 335.626 69.3704 335.207 69.7709C334.787 70.1715 334.23 70.3948 333.65 70.3942C333.348 70.4106 333.046 70.3674 332.76 70.2669C332.475 70.1665 332.212 70.0109 331.987 69.8089C331.532 69.401 331.258 68.8292 331.225 68.2192C331.192 67.6092 331.402 67.011 331.81 66.5562C332.218 66.1015 332.79 65.8273 333.4 65.7942ZM355.55 61.5442C356.197 61.568 356.812 61.8324 357.274 62.2855C357.736 62.7386 358.013 63.3479 358.05 63.9942C358.024 64.5734 357.776 65.1204 357.357 65.5209C356.937 65.9215 356.38 66.1448 355.8 66.1442C355.478 66.2069 355.145 66.1997 354.826 66.1232C354.506 66.0467 354.207 65.9026 353.947 65.7006C353.688 65.4986 353.475 65.2435 353.323 64.9523C353.171 64.6611 353.083 64.3407 353.065 64.0126C353.047 63.6845 353.099 63.3564 353.219 63.0503C353.338 62.7442 353.522 62.4672 353.757 62.2381C353.993 62.0089 354.275 61.8329 354.584 61.7218C354.893 61.6107 355.223 61.5672 355.55 61.5942V61.5442ZM602.3 309.794C604.646 305.447 608.494 302.101 613.125 300.381C617.756 298.662 622.855 298.686 627.47 300.448C632.085 302.211 635.901 305.592 638.207 309.962C640.512 314.331 641.15 319.39 640 324.194C647.355 327.773 654.381 331.989 661 336.794C663.9 339.394 663.5 341.794 658.35 341.444C649.407 340.646 640.565 338.972 631.95 336.444C629.194 338.457 625.976 339.745 622.591 340.189C619.207 340.632 615.766 340.218 612.584 338.983C609.402 337.748 606.581 335.732 604.382 333.122C602.183 330.511 600.676 327.39 600 324.044C595 321.644 577.65 312.694 576.6 307.644C576.25 305.794 578.05 304.944 579.95 304.744C587.632 305.148 595.19 306.856 602.3 309.794ZM639.6 325.244C638.624 328.642 636.78 331.726 634.25 334.194C642.748 336.644 651.45 338.317 660.25 339.194C657.4 335.494 643.7 327.594 639.6 325.244ZM601.8 324.794C602.611 327.608 604.06 330.196 606.034 332.359C608.008 334.521 610.454 336.2 613.181 337.264C615.909 338.328 618.846 338.749 621.762 338.494C624.679 338.239 627.498 337.315 630 335.794C620.34 332.831 610.915 329.155 601.8 324.794ZM632.7 333.744C636.214 330.613 638.452 326.298 638.987 321.622C639.522 316.947 638.316 312.238 635.6 308.394C634.175 306.295 632.338 304.509 630.199 303.144C628.06 301.78 625.666 300.866 623.162 300.459C620.658 300.052 618.097 300.16 615.636 300.776C613.175 301.393 610.866 302.505 608.85 304.044C606.134 306.043 603.992 308.722 602.641 311.812C601.289 314.902 600.775 318.293 601.15 321.644C611.324 326.521 621.875 330.567 632.7 333.744ZM601.8 310.794C598.1 309.594 581.8 304.894 578.85 307.194C580 310.794 596.25 319.244 600 320.794C599.715 317.361 600.336 313.913 601.8 310.794ZM239.3 618.944C245.337 622.913 251.692 626.375 258.3 629.294C258.364 629.314 258.433 629.312 258.496 629.288C258.559 629.264 258.612 629.22 258.647 629.162C258.681 629.104 258.695 629.037 258.687 628.97C258.679 628.903 258.648 628.841 258.6 628.794C252.556 624.837 246.202 621.376 239.6 618.444C239.536 618.424 239.467 618.426 239.404 618.45C239.341 618.474 239.288 618.519 239.253 618.576C239.219 618.634 239.205 618.702 239.213 618.768C239.221 618.835 239.252 618.897 239.3 618.944ZM130.9 179.944C130.9 167.844 131.6 156.444 131.6 156.944C131.633 156.844 131.697 156.757 131.782 156.695C131.867 156.634 131.97 156.6 132.075 156.6C132.18 156.6 132.283 156.634 132.368 156.695C132.454 156.757 132.517 156.844 132.55 156.944C132.55 160.594 133.2 163.844 133.25 180.744C136.945 178.339 140.767 176.136 144.7 174.144C144.753 174.111 144.811 174.089 144.872 174.079C144.933 174.069 144.996 174.071 145.056 174.085C145.116 174.099 145.173 174.124 145.224 174.16C145.274 174.196 145.317 174.242 145.35 174.294C145.383 174.347 145.405 174.405 145.415 174.466C145.425 174.527 145.424 174.59 145.41 174.65C145.396 174.711 145.37 174.768 145.334 174.818C145.298 174.868 145.253 174.911 145.2 174.944C141.999 177.57 138.661 180.023 135.2 182.294C142.4 186.244 143.85 187.294 147.3 189.394C150.75 191.494 150.8 191.494 150.55 191.994C150.3 192.494 150.05 192.294 146.6 190.694C143.15 189.094 140.8 188.094 133.25 183.944C133.25 203.094 132.5 211.844 132.5 211.344C132.467 211.444 132.404 211.531 132.318 211.593C132.233 211.655 132.13 211.688 132.025 211.688C131.92 211.688 131.817 211.655 131.732 211.593C131.647 211.531 131.583 211.444 131.55 211.344C131.55 207.744 130.85 204.594 130.85 185.094C126.949 187.679 122.909 190.049 118.75 192.194C118.697 192.227 118.639 192.249 118.578 192.259C118.517 192.27 118.454 192.268 118.394 192.254C118.334 192.24 118.277 192.214 118.226 192.178C118.176 192.142 118.133 192.097 118.1 192.044C118.067 191.992 118.045 191.933 118.035 191.872C118.025 191.811 118.026 191.748 118.04 191.688C118.054 191.628 118.08 191.571 118.116 191.52C118.152 191.47 118.197 191.427 118.25 191.394C122.187 188.17 126.311 185.182 130.6 182.444C126.55 180.194 125.25 179.394 122.05 177.444C118.85 175.494 117.8 174.894 118.05 174.344C118.144 174.275 118.258 174.238 118.375 174.238C118.492 174.238 118.606 174.275 118.7 174.344C125 176.694 128.75 178.844 130.9 179.944Z" fill="#7064FC"/>
<path fill-rule="evenodd" clip-rule="evenodd" d="M239.6 629.3C245.201 626.363 250.509 622.898 255.45 618.95C255.8 618.95 255.45 618.25 255.15 618.45C249.553 621.393 244.246 624.859 239.3 628.8C239 629 239.3 629.5 239.6 629.3ZM394.6 327.8C394.6 341.85 395.1 344.1 395.1 346.65C395.079 346.703 395.071 346.761 395.077 346.817C395.083 346.874 395.103 346.929 395.135 346.976C395.167 347.023 395.21 347.062 395.261 347.089C395.311 347.116 395.368 347.13 395.425 347.13C395.482 347.13 395.538 347.116 395.589 347.089C395.64 347.062 395.683 347.023 395.715 346.976C395.747 346.929 395.767 346.874 395.773 346.817C395.779 346.761 395.771 346.703 395.75 346.65C395.75 347.15 396.3 339.05 396.3 326.95C400.176 329.142 404.165 331.128 408.25 332.9C408.65 332.9 409 332.5 408.6 332.3C405.08 329.948 401.442 327.779 397.7 325.8C400.177 324.271 402.564 322.602 404.85 320.8C404.918 320.748 404.964 320.673 404.981 320.59C404.997 320.506 404.983 320.419 404.94 320.345C404.897 320.272 404.828 320.216 404.747 320.19C404.666 320.163 404.578 320.166 404.5 320.2C404.5 320.2 400.4 322.3 396.3 324.95C396.3 312.5 395.8 309.95 395.8 307.85C395.8 307.757 395.763 307.668 395.697 307.603C395.632 307.537 395.543 307.5 395.45 307.5C395.357 307.5 395.268 307.537 395.203 307.603C395.137 307.668 395.1 307.757 395.1 307.85C395.1 307.35 394.65 315.9 394.6 324.4C393.15 323.65 390.25 322.1 385.85 320.2C385.45 320.2 385.1 320.6 385.5 320.8C385.9 321 389.2 323.35 394.4 326.2C391.321 328.064 388.35 330.101 385.5 332.3C385.1 332.3 385.5 333.15 385.85 332.9C385.35 333.15 389.1 331.3 394.6 327.8ZM520.3 681.1C514.85 678.85 457.35 675.3 456.85 675.25C455.3 675.25 444.1 677.5 443.35 677.7C442.6 677.9 443.35 677.7 443.35 677.95C447.721 679.947 452.233 681.618 456.85 682.95C461.85 684 471.85 684.1 519.25 689.2C520.15 689.2 522.05 686.1 520.95 681.6C520.9 681.45 520.55 681.25 520.3 681.1ZM456.6 682.45L449.05 679.8C449.342 679.402 449.531 678.938 449.601 678.45C449.67 677.962 449.619 677.464 449.45 677C451.894 676.507 454.365 676.156 456.85 675.95C458.05 677.15 454.85 677.6 457.25 679.15C457.55 679.15 457.6 679.15 457.25 679.5C457.123 679.563 457.01 679.651 456.918 679.76C456.826 679.868 456.757 679.993 456.715 680.129C456.673 680.264 456.659 680.407 456.673 680.548C456.688 680.689 456.731 680.826 456.8 680.95C457.2 681.65 457.65 681.95 456.6 682.45ZM457.2 682.45C458.6 681.7 456.7 680.55 457.65 679.95C459.75 678.5 449.75 678.9 515.8 684.95C515.662 685.979 515.892 687.024 516.45 687.9L457.2 682.45ZM515.85 684.55C513.6 684.3 458.25 679.05 457.9 678.75C457.55 678.45 456.65 678.2 457.1 677.6C457.55 677 457.8 676.45 457.1 675.85C457.6 675.85 506.65 679.75 517.1 681.5C516.371 682.397 515.935 683.497 515.85 684.65V684.55ZM519.05 688C518.7 687.65 518.65 687.75 518.3 686.75C517.95 685.75 518.3 682.35 519.9 682.35C520.145 683.317 520.196 684.323 520.05 685.31C519.905 686.297 519.565 687.245 519.05 688.1V688ZM553.8 540.45C553.744 540.266 553.649 540.097 553.52 539.954C553.391 539.811 553.232 539.699 553.054 539.626C552.877 539.552 552.685 539.518 552.493 539.528C552.301 539.537 552.113 539.589 551.944 539.679C551.774 539.769 551.627 539.896 551.512 540.051C551.397 540.205 551.318 540.383 551.281 540.571C551.243 540.76 551.248 540.954 551.294 541.141C551.341 541.327 551.428 541.501 551.55 541.65C552.05 542.45 552.55 543.25 553.1 544.05C553.176 544.223 553.288 544.377 553.43 544.501C553.571 544.626 553.738 544.719 553.919 544.772C554.099 544.826 554.29 544.84 554.476 544.813C554.663 544.786 554.841 544.719 554.999 544.616C555.157 544.513 555.291 544.377 555.391 544.217C555.491 544.058 555.556 543.878 555.579 543.691C555.603 543.504 555.586 543.314 555.529 543.134C555.472 542.954 555.377 542.789 555.25 542.65C555 541.95 554.25 541.2 553.8 540.45ZM491.5 434.25C491.8 431.9 494.55 419.95 493.5 419.7C493.441 419.677 493.378 419.666 493.315 419.669C493.252 419.671 493.19 419.688 493.133 419.716C493.076 419.744 493.026 419.784 492.986 419.833C492.946 419.882 492.917 419.939 492.9 420C491.482 423.491 490.394 427.106 489.65 430.8C489.366 432.101 489.182 433.421 489.1 434.75C489.107 434.954 489.165 435.153 489.27 435.328C489.375 435.503 489.523 435.648 489.7 435.75C490.953 436.39 492.306 436.812 493.7 437C494.8 437 498.7 437.3 498.25 436.25C497.8 435.2 497.2 437.1 491.5 434.25ZM513.95 427V424.4C513.95 422.6 511.45 422.35 511.4 424.4V427.25C511.386 427.439 511.414 427.629 511.481 427.806C511.548 427.983 511.653 428.143 511.789 428.275C511.924 428.408 512.087 428.509 512.266 428.571C512.445 428.634 512.635 428.657 512.823 428.639C513.012 428.62 513.194 428.561 513.357 428.464C513.52 428.368 513.66 428.237 513.768 428.081C513.875 427.925 513.947 427.748 513.978 427.561C514.01 427.374 514 427.183 513.95 427ZM517.25 440.8C515.65 446.8 513.5 447.7 510.9 448C510.368 448.043 509.832 448.043 509.3 448C509.181 447.96 509.05 447.969 508.938 448.026C508.825 448.082 508.74 448.181 508.7 448.3C508.66 448.419 508.669 448.55 508.726 448.662C508.782 448.775 508.881 448.86 509 448.9C513.35 451.4 519.3 448.35 518.2 440.8C518.167 440.7 518.103 440.613 518.018 440.551C517.933 440.489 517.83 440.456 517.725 440.456C517.62 440.456 517.517 440.489 517.432 440.551C517.346 440.613 517.283 440.7 517.25 440.8ZM536.05 503.3C536.02 503.136 535.959 502.979 535.869 502.839C535.779 502.698 535.662 502.577 535.525 502.482C535.388 502.387 535.233 502.32 535.07 502.284C534.908 502.248 534.739 502.245 534.575 502.275C534.411 502.305 534.254 502.366 534.114 502.456C533.973 502.546 533.852 502.663 533.757 502.8C533.662 502.937 533.595 503.092 533.559 503.255C533.524 503.417 533.52 503.586 533.55 503.75C533.764 504.681 534.031 505.599 534.35 506.5C534.365 506.692 534.423 506.878 534.518 507.045C534.614 507.213 534.746 507.356 534.904 507.466C535.062 507.576 535.243 507.65 535.433 507.681C535.623 507.713 535.818 507.702 536.003 507.649C536.188 507.596 536.36 507.502 536.504 507.375C536.649 507.248 536.764 507.09 536.84 506.913C536.916 506.736 536.952 506.545 536.945 506.352C536.938 506.16 536.889 505.971 536.8 505.8C536.5 504.95 536.25 504.1 536.05 503.3ZM486.85 419.55C486.888 419.361 486.883 419.167 486.836 418.98C486.789 418.794 486.702 418.62 486.58 418.472C486.458 418.323 486.305 418.203 486.131 418.121C485.957 418.039 485.767 417.996 485.575 417.996C485.383 417.996 485.193 418.039 485.019 418.121C484.845 418.203 484.692 418.323 484.57 418.472C484.448 418.62 484.361 418.794 484.314 418.98C484.267 419.167 484.262 419.361 484.3 419.55V422.4C484.262 422.589 484.267 422.783 484.314 422.97C484.361 423.156 484.448 423.33 484.57 423.478C484.692 423.627 484.845 423.747 485.019 423.829C485.193 423.911 485.383 423.954 485.575 423.954C485.767 423.954 485.957 423.911 486.131 423.829C486.305 423.747 486.458 423.627 486.58 423.478C486.702 423.33 486.789 423.156 486.836 422.97C486.883 422.783 486.888 422.589 486.85 422.4C486.79 421.451 486.79 420.499 486.85 419.55ZM882.1 629C881.8 629.05 882.1 629 882.1 629V629Z" fill="#7064FC"/>
<path fill-rule="evenodd" clip-rule="evenodd" d="M907.05 625.796C901.5 623.096 888.3 625.346 882.05 626.646C879.754 624.082 876.857 622.127 873.62 620.958C870.382 619.788 866.905 619.441 863.5 619.946C857.9 621.346 856.55 628.246 856.8 634.046C853.2 633.396 849.3 632.946 845.7 632.596C846 631.496 846.95 629.946 846.65 628.846C846.488 628.454 846.243 628.1 845.931 627.811C845.62 627.522 845.25 627.304 844.846 627.171C844.443 627.038 844.015 626.993 843.593 627.041C843.171 627.089 842.764 627.227 842.4 627.446C841.403 628.242 840.482 629.129 839.65 630.096C839.65 628.346 841.1 625.546 839.35 625.096C837.6 624.646 832.15 629.546 830.6 631.296C819.118 630.033 807.532 630.033 796.05 631.296C781.017 632.375 766.849 638.733 756.05 649.246C816.85 579.246 843.55 531.146 842.85 471.196C842.15 411.246 770.9 382.646 741.6 381.896C713.15 381.196 683.8 396.896 682.3 396.896C656.6 401.896 589.2 394.446 575.05 400.346C575.224 394.011 574.088 387.708 571.713 381.831C569.338 375.955 565.776 370.632 561.25 366.196C553.15 357.346 540.2 354.046 527.05 354.596C508.3 355.446 489.7 363.296 480.4 379.596C477.317 384.874 475.502 390.797 475.1 396.896C475.1 398.446 471.9 423.946 480.1 443.246C481.949 448.133 484.908 452.524 488.743 456.072C492.578 459.621 497.185 462.231 502.2 463.696C494.117 474.412 486.703 485.617 480 497.246C478.45 500.496 479.6 502.246 481.85 502.246C484.1 502.246 487.1 501.646 489.2 501.746C485.9 510.796 477.5 534.396 475.45 543.746C465.171 550.669 455.914 559 447.95 568.496C432.95 585.696 425.95 604.346 408.95 614.296L403.95 617.096C410.75 596.446 423.6 555.446 418.95 555.396C414.3 555.346 403 594.796 395.8 621.546C388.1 625.796 384.2 628.496 381.5 636.896C380.62 639.02 380.167 641.297 380.167 643.596C380.167 645.896 380.62 648.172 381.5 650.296C381.821 650.978 382.311 651.565 382.924 652.003C383.536 652.441 384.251 652.714 385 652.796C385.6 652.796 385.6 652.246 383.95 655.896C383.164 656.122 382.42 656.477 381.75 656.946L357.7 642.296C357.15 642.296 364.05 641.346 217.7 660.396C214.95 658.346 212.05 656.196 209.05 653.846C137.15 597.896 371.95 537.846 390.75 461.396C407.6 392.946 310.75 379.146 332.25 314.846C353.75 250.546 494.35 268.546 626.7 260.846C759.05 253.146 811.7 119.546 715.35 49.9463C619 -19.6537 520 79.1963 496.6 104.446C473.2 129.696 446.2 162.746 370.4 159.446C294.6 156.146 195.4 168.996 159.05 278.896C141.55 331.496 157.25 368.396 180.6 397.646C188.421 389.69 198.093 383.797 208.75 380.496C214.95 378.996 221.1 379.796 222.85 385.946C226.15 397.246 212.45 414.796 204.5 423.546C224.5 442.846 243.7 459.146 251.25 475.996C263.85 504.296 203.45 525.246 177.95 541.796C152.45 558.346 113.5 609.546 137.4 659.246C139.195 663.053 141.198 666.759 143.4 670.346C92.7 676.896 90.95 676.896 90.45 677.196C89.95 677.496 90.1 678.396 90.45 678.896H90.1C94.6 683.896 227.05 873.196 308.35 969.396L309.8 969.696C327.4 961.246 646.8 806.196 629.8 796.646C629.8 796.646 396.3 666.296 390.75 662.996C391.618 661.506 392.37 659.952 393 658.346C393.276 658.325 393.537 658.209 393.738 658.018C393.938 657.826 394.066 657.571 394.1 657.296V654.596C397.2 655.646 402.05 652.646 404.55 650.396C409.55 645.796 417.05 632.996 422.6 631.296C433.668 628.54 444.583 625.202 455.3 621.296C499.85 604.596 518.35 585.896 537.75 555.696C540.956 550.978 543.686 545.953 545.9 540.696C557.22 552.923 570.984 562.633 586.3 569.196C545.9 615.846 552.25 645.446 566.85 661.596C580.2 676.346 601.85 671.146 605.4 670.046C605.4 692.246 612.9 741.546 615.4 746.496C616.7 749.346 612.35 751.496 611.45 757.146C610.977 760.017 611.349 762.964 612.52 765.627C613.692 768.291 615.613 770.556 618.05 772.146C623.6 775.646 633.05 775.846 629.35 770.296C628.116 768.711 626.725 767.254 625.2 765.946C626.65 766.396 628.25 766.996 630.2 767.696C648.45 774.846 650.85 778.096 654.2 777.146C654.649 777.042 655.071 776.84 655.433 776.555C655.796 776.27 656.092 775.908 656.3 775.496C656.699 775.772 657.152 775.961 657.629 776.05C658.106 776.14 658.596 776.127 659.068 776.014C659.54 775.901 659.983 775.689 660.367 775.393C660.752 775.097 661.07 774.723 661.3 774.296C661.471 773.973 661.56 773.612 661.56 773.246C661.56 772.88 661.471 772.52 661.3 772.196C661.934 771.128 662.148 769.863 661.9 768.646C661.9 764.146 644.7 749.446 641.2 746.546C641.7 741.546 644.35 730.446 650.95 700.946C685.05 739.396 799.7 685.946 805.95 683.246C807 684.346 849.35 666.296 854.25 663.696C853.75 663.696 907.95 639.196 910 630.196C910 628.096 908.65 626.746 907.05 625.796ZM713.65 173.096C714.477 173.122 715.26 173.473 715.831 174.071C716.401 174.67 716.713 175.469 716.7 176.296C716.713 176.708 716.645 177.117 716.498 177.502C716.351 177.886 716.129 178.238 715.846 178.535C715.562 178.833 715.221 179.072 714.844 179.237C714.467 179.402 714.061 179.49 713.65 179.496C713.236 179.49 712.828 179.402 712.448 179.237C712.069 179.073 711.725 178.836 711.437 178.538C711.149 178.241 710.923 177.89 710.77 177.506C710.618 177.121 710.543 176.71 710.55 176.296C710.543 175.883 710.618 175.472 710.77 175.087C710.923 174.702 711.149 174.351 711.437 174.054C711.725 173.757 712.069 173.519 712.448 173.355C712.828 173.191 713.236 173.103 713.65 173.096ZM685.4 85.7963C685.805 85.7962 686.205 85.8768 686.579 86.0331C686.952 86.1895 687.291 86.4187 687.574 86.7072C687.858 86.9958 688.082 87.3379 688.232 87.7138C688.383 88.0896 688.457 88.4916 688.45 88.8963C688.505 89.3262 688.468 89.7629 688.342 90.1774C688.215 90.592 688.001 90.9747 687.715 91.3002C687.429 91.6257 687.077 91.8864 686.682 92.065C686.287 92.2436 685.858 92.336 685.425 92.336C684.992 92.336 684.563 92.2436 684.168 92.065C683.773 91.8864 683.421 91.6257 683.135 91.3002C682.848 90.9747 682.635 90.592 682.508 90.1774C682.381 89.7629 682.345 89.3262 682.4 88.8963C682.393 88.4958 682.466 88.0978 682.613 87.7252C682.76 87.3527 682.979 87.0127 683.258 86.7249C683.536 86.437 683.869 86.2068 684.236 86.0475C684.604 85.8882 684.999 85.8028 685.4 85.7963ZM591.4 223.746C591.043 223.681 590.72 223.493 590.487 223.214C590.255 222.936 590.127 222.584 590.127 222.221C590.127 221.858 590.255 221.507 590.487 221.228C590.72 220.949 591.043 220.761 591.4 220.696C591.818 220.696 592.218 220.862 592.514 221.158C592.809 221.453 592.975 221.854 592.975 222.271C592.975 222.689 592.809 223.09 592.514 223.385C592.218 223.68 591.818 223.846 591.4 223.846V223.746ZM577.8 86.3963C577.8 84.3963 582.8 83.3963 585 83.0963C588.634 82.6161 592.316 82.6161 595.95 83.0963C598.203 78.9605 600.976 75.1295 604.2 71.6963C605.25 70.8463 606.2 70.5463 607.15 71.6963C609.41 76.2626 610.865 81.1849 611.45 86.2463C619.2 88.2463 630 91.9463 623.5 96.5963C621.5 98.0463 617.95 99.5463 614.1 101.596C614.531 105.631 614.664 109.692 614.5 113.746C614.5 115.596 614 118.396 612.15 118.746C608.4 119.396 605.5 114.196 599.6 109.096C593.95 111.896 582.65 118.096 582.4 112.146C583.012 107.071 584.518 102.145 586.85 97.5963C581.1 92.1463 577.45 89.4963 577.8 86.4963V86.3963ZM572.8 178.346C572.789 181.836 571.878 185.264 570.155 188.3C568.432 191.335 565.956 193.875 562.966 195.674C559.975 197.474 556.572 198.471 553.083 198.572C549.594 198.672 546.139 197.871 543.05 196.246L572.15 173.146C572.597 174.878 572.832 176.658 572.85 178.446L572.8 178.346ZM571.55 171.296C563.55 177.446 552.8 186.296 542.05 195.646C541.24 195.159 540.471 194.607 539.75 193.996C550.2 183.446 560.45 171.546 566.8 163.996C568.891 166.107 570.525 168.626 571.6 171.396L571.55 171.296ZM565.7 162.946C563.7 165.096 546.3 184.696 538.8 192.946C536.665 190.986 534.962 188.602 533.8 185.946C541.4 180.446 551.75 172.796 563.25 163.746L565.05 162.296L565.7 162.946ZM552.55 157.946C556.561 157.942 560.481 159.144 563.8 161.396L556.75 166.396C555.15 167.596 543 177.146 533.4 184.646C532.381 181.599 532.099 178.354 532.576 175.176C533.053 171.998 534.275 168.979 536.143 166.365C538.011 163.75 540.472 161.616 543.323 160.135C546.175 158.654 549.337 157.87 552.55 157.846V157.946ZM504.35 149.746C504.957 149.726 505.556 149.888 506.071 150.211C506.585 150.534 506.992 151.003 507.238 151.558C507.484 152.113 507.559 152.73 507.453 153.328C507.347 153.926 507.065 154.478 506.642 154.915C506.22 155.352 505.677 155.652 505.083 155.778C504.489 155.904 503.87 155.85 503.307 155.622C502.744 155.395 502.261 155.004 501.922 154.501C501.582 153.997 501.4 153.404 501.4 152.796C501.451 152.036 501.789 151.323 502.346 150.803C502.904 150.283 503.638 149.995 504.4 149.996L504.35 149.746ZM476.8 225.446C477.967 225.486 479.098 225.868 480.049 226.545C481.001 227.222 481.733 228.164 482.152 229.255C482.572 230.345 482.662 231.534 482.41 232.675C482.159 233.816 481.577 234.857 480.737 235.669C479.898 236.481 478.838 237.029 477.689 237.242C476.541 237.456 475.355 237.327 474.279 236.872C473.204 236.416 472.286 235.654 471.641 234.68C470.995 233.707 470.651 232.564 470.65 231.396C470.689 229.796 471.356 228.275 472.507 227.162C473.657 226.049 475.199 225.433 476.8 225.446ZM399 211.346C401.15 211.346 401.15 215.196 399 215.196C396.85 215.196 396.8 211.346 399 211.346ZM195.65 321.896C195.413 321.938 195.169 321.927 194.937 321.865C194.704 321.803 194.488 321.69 194.303 321.535C194.119 321.38 193.97 321.187 193.868 320.969C193.767 320.75 193.714 320.512 193.714 320.271C193.714 320.03 193.767 319.792 193.868 319.574C193.97 319.356 194.119 319.162 194.303 319.007C194.488 318.853 194.704 318.74 194.937 318.678C195.169 318.615 195.413 318.605 195.65 318.646C195.887 318.605 196.131 318.615 196.363 318.678C196.596 318.74 196.812 318.853 196.997 319.007C197.181 319.162 197.33 319.356 197.432 319.574C197.533 319.792 197.586 320.03 197.586 320.271C197.586 320.512 197.533 320.75 197.432 320.969C197.33 321.187 197.181 321.38 196.997 321.535C196.812 321.69 196.596 321.803 196.363 321.865C196.131 321.927 195.887 321.938 195.65 321.896ZM303.15 518.196C302.478 518.119 301.843 517.849 301.322 517.418C300.8 516.987 300.414 516.415 300.211 515.77C300.008 515.125 299.997 514.434 300.178 513.783C300.359 513.131 300.725 512.546 301.231 512.098C301.738 511.65 302.363 511.358 303.032 511.258C303.701 511.158 304.384 511.254 305 511.534C305.616 511.814 306.137 512.266 306.501 512.837C306.864 513.407 307.055 514.07 307.05 514.746C306.986 515.719 306.54 516.627 305.81 517.273C305.079 517.919 304.123 518.251 303.15 518.196ZM315 183.796C315.684 183.786 316.356 183.98 316.93 184.353C317.504 184.726 317.954 185.262 318.223 185.891C318.492 186.521 318.567 187.216 318.44 187.888C318.312 188.561 317.988 189.18 317.507 189.668C317.027 190.155 316.412 190.489 315.742 190.626C315.071 190.763 314.375 190.698 313.742 190.438C313.108 190.179 312.566 189.736 312.185 189.168C311.804 188.6 311.6 187.931 311.6 187.246C311.6 186.34 311.956 185.47 312.593 184.824C313.229 184.179 314.094 183.809 315 183.796ZM317.9 363.346C317.895 363.835 317.751 364.311 317.483 364.72C317.215 365.128 316.836 365.451 316.39 365.65C315.944 365.85 315.45 365.917 314.967 365.843C314.485 365.77 314.033 365.56 313.666 365.237C313.299 364.915 313.033 364.494 312.899 364.024C312.764 363.555 312.767 363.056 312.908 362.589C313.048 362.121 313.32 361.703 313.691 361.386C314.062 361.068 314.516 360.863 315 360.796C315.351 360.769 315.704 360.814 316.037 360.93C316.37 361.046 316.675 361.229 316.934 361.469C317.192 361.708 317.398 361.999 317.539 362.322C317.679 362.645 317.751 362.994 317.75 363.346H317.9ZM319.05 437.196C322.05 434.846 330.9 427.546 333.55 429.846C336.2 432.146 333.9 436.996 333.55 443.896C339.1 446.546 350.6 451.596 346.1 454.796C341.693 456.95 336.964 458.369 332.1 458.996C331.25 466.246 331.3 469.946 328.85 471.196C327.15 471.996 323.4 468.946 322 467.646C319.31 465.352 316.954 462.693 315 459.746C310.433 460.297 305.817 460.297 301.25 459.746C300.05 459.446 299.15 458.896 299.4 457.696C299.95 454.946 306.15 449.096 308.2 447.146C306.9 444.296 303.85 437.146 304.9 434.296C306.4 430.346 312.85 434.696 318.9 437.196H319.05ZM302.8 276.096C303.85 276.096 304.4 276.846 304.25 278.146C303.203 281.857 301.62 285.394 299.55 288.646C301.694 290.891 303.527 293.414 305 296.146C310 305.796 303.05 303.346 292.75 301.146C290.321 304.757 287.234 307.878 283.65 310.346C279 312.646 277.95 302.846 277.15 297.296C270.1 295.446 264.5 295.696 263.05 292.846C261.6 289.996 272.4 285.646 275.5 284.246C275.15 279.246 273 272.546 277.3 272.746C281.658 274.063 285.659 276.354 289 279.446C293.394 277.606 298.052 276.476 302.8 276.096ZM239.1 415.796C238.542 415.886 237.972 415.854 237.428 415.702C236.884 415.55 236.38 415.282 235.949 414.916C235.519 414.55 235.174 414.095 234.937 413.582C234.7 413.069 234.577 412.511 234.577 411.946C234.577 411.381 234.7 410.823 234.937 410.311C235.174 409.798 235.519 409.343 235.949 408.977C236.38 408.611 236.884 408.342 237.428 408.19C237.972 408.038 238.542 408.006 239.1 408.096C239.658 408.006 240.228 408.038 240.772 408.19C241.316 408.342 241.82 408.611 242.251 408.977C242.681 409.343 243.026 409.798 243.263 410.311C243.5 410.823 243.622 411.381 243.622 411.946C243.622 412.511 243.5 413.069 243.263 413.582C243.026 414.095 242.681 414.55 242.251 414.916C241.82 415.282 241.316 415.55 240.772 415.702C240.228 415.854 239.658 415.886 239.1 415.796ZM210.9 264.746C210.716 264.701 210.552 264.595 210.435 264.445C210.318 264.296 210.255 264.111 210.255 263.921C210.255 263.731 210.318 263.547 210.435 263.398C210.552 263.248 210.716 263.142 210.9 263.096C221.85 262.346 234.3 261.996 245.25 261.996C236.124 255.596 226.354 250.166 216.1 245.796C215.883 245.73 215.699 245.583 215.585 245.386C215.472 245.19 215.436 244.957 215.487 244.735C215.538 244.514 215.67 244.32 215.858 244.192C216.046 244.064 216.275 244.012 216.5 244.046C227.865 244.168 239.046 246.941 249.15 252.146C242.504 245.524 235.475 239.296 228.1 233.496C227.942 233.368 227.835 233.188 227.799 232.988C227.762 232.788 227.799 232.581 227.902 232.406C228.005 232.23 228.167 232.098 228.359 232.032C228.551 231.966 228.761 231.971 228.95 232.046C241.553 236.11 253.385 242.263 263.95 250.246C274.379 257.889 283.426 267.257 290.7 277.946C290.7 278.396 290.25 278.746 289.95 278.296C282.681 267.676 273.651 258.376 263.25 250.796C253.985 244.001 243.777 238.594 232.95 234.746C236.6 237.696 251.4 249.746 253.35 254.196C253.75 254.996 252.75 255.746 251.9 255.246C246.56 252.272 240.887 249.939 235 248.296C230.412 246.924 225.68 246.085 220.9 245.796C226.65 248.546 244.5 257.296 248.15 262.496C248.243 262.635 248.296 262.798 248.302 262.965C248.308 263.133 248.267 263.299 248.184 263.444C248.101 263.59 247.979 263.709 247.831 263.789C247.684 263.869 247.517 263.906 247.35 263.896C246.8 263.896 233 263.896 218.35 264.396C235.65 267.696 258.35 274.046 272.8 284.396C273.2 284.696 272.8 285.296 272.3 284.996C256.6 274.046 229.45 267.246 210.9 264.746ZM494 367.996C511.05 355.146 544.85 351.746 559.65 367.996C564.009 372.246 567.434 377.358 569.707 383.005C571.979 388.653 573.05 394.712 572.85 400.796C571.685 411.823 566.943 422.166 559.35 430.246C558.45 431.146 558.45 430.246 558.75 429.796C559.61 428.561 560.18 427.147 560.417 425.66C560.655 424.173 560.553 422.652 560.121 421.21C559.688 419.768 558.935 418.442 557.919 417.332C556.902 416.221 555.648 415.354 554.25 414.796C544.8 410.496 541.95 426.346 535.05 428.296C529.05 430.046 531.3 416.046 531.75 406.696C532.379 402.586 531.432 398.389 529.1 394.946C524.947 390.49 519.811 387.066 514.1 384.946C504.087 380.914 493.215 379.486 482.5 380.796C485.425 375.793 489.338 371.438 494 367.996ZM482.15 442.546C473.9 423.046 477.5 397.146 477.5 397.146C477.903 391.887 479.42 386.774 481.95 382.146C492.755 381.048 503.66 382.771 513.6 387.146C519.007 389.171 523.881 392.403 527.85 396.596C532.85 403.196 527.85 415.796 529.45 425.646C530.05 429.496 531.85 431.946 535.6 430.646C543.35 428.446 545.95 413.746 553.4 417.146C560.85 420.546 559.5 430.296 550.7 433.996C547.3 435.446 547.6 438.696 550.2 438.996C551.55 438.996 554.2 438.246 558.25 434.996C564.181 429.2 568.846 422.236 571.95 414.546C578.902 416.014 585.628 418.402 591.95 421.646C600.85 425.696 611.35 431.346 619.65 436.196C607.001 439.212 595.47 445.764 586.405 455.086C577.339 464.409 571.112 476.118 568.45 488.846C566.55 488.846 566.7 486.146 565.4 485.146C564.1 484.146 563.3 485.146 561.75 485.646C561.781 484.415 561.506 483.195 560.95 482.096C560.95 479.196 556.2 480.896 553.45 481.796C553.483 480.557 553.296 479.321 552.9 478.146C554.05 474.446 547.35 476.296 543.6 477.346C543.883 475.927 543.883 474.466 543.6 473.046C543.95 470.146 537.6 471.996 534.95 473.046C535.178 471.376 535.076 469.677 534.65 468.046C533.25 466.096 525.85 470.196 525.55 468.346C525.575 466.976 525.846 465.621 526.35 464.346C527.2 461.296 523.05 463.196 521.85 462.996C521.804 463.023 521.753 463.036 521.7 463.036C521.647 463.036 521.596 463.023 521.55 462.996V462.396C525.732 461.25 529.748 459.57 533.5 457.396C535.406 460.207 538.266 462.232 541.55 463.096C544.533 463.985 547.708 463.993 550.695 463.119C553.682 462.246 556.353 460.528 558.387 458.172C560.421 455.816 561.73 452.923 562.158 449.84C562.586 446.758 562.115 443.617 560.8 440.796C560.8 440.246 559.7 440.796 559.95 441.146C560.597 443.062 560.851 445.089 560.695 447.105C560.539 449.121 559.978 451.085 559.043 452.878C558.109 454.672 556.822 456.258 555.26 457.541C553.697 458.825 551.891 459.779 549.95 460.346L537.85 452.896C537.4 452.596 537.45 452.896 534.8 454.596C533.137 451.314 532.691 447.549 533.543 443.969C534.394 440.39 536.487 437.228 539.45 435.046C542.943 432.703 547.098 431.546 551.3 431.746C551.4 431.713 551.487 431.65 551.549 431.564C551.611 431.479 551.644 431.377 551.644 431.271C551.644 431.166 551.611 431.063 551.549 430.978C551.487 430.893 551.4 430.829 551.3 430.796C546.798 430.252 542.242 431.219 538.35 433.546C534.816 435.893 532.281 439.47 531.236 443.582C530.192 447.694 530.714 452.047 532.7 455.796C523.836 460.839 513.668 463.12 503.5 462.346C498.625 460.977 494.147 458.467 490.434 455.024C486.722 451.581 483.882 447.304 482.15 442.546ZM560 486.946C561.314 486.665 562.589 486.229 563.8 485.646C566 484.846 565.4 489.246 568.2 489.296C567.7 491.646 567.4 493.496 567.25 494.646C564.9 493.796 562.7 492.846 560.5 491.946C560.597 490.264 560.428 488.576 560 486.946ZM560 485.846C560 485.846 560 485.596 560.5 483.896C560.624 484.526 560.879 485.122 561.25 485.646L560 485.796V485.846ZM559.5 486.796C559.244 488.453 559.244 490.139 559.5 491.796C556 490.346 552.75 488.846 549.5 487.346C549.497 486.403 549.311 485.468 548.95 484.596C551.25 484.596 558.95 480.896 559.3 481.996C559.65 483.096 557.85 485.796 559.5 486.796ZM548.45 484.246C548.44 485.027 548.559 485.804 548.8 486.546C547.5 485.946 542.15 483.246 540.8 482.546C540.776 481.479 540.608 480.419 540.3 479.396C543.297 478.983 546.257 478.331 549.15 477.446C549.5 477.446 551.75 477.146 551.55 477.446C551.35 478.896 546.25 483.096 548.45 484.246ZM539.7 481.946C537.15 480.596 534.7 479.296 532.8 478.096C532.834 477.036 532.646 475.98 532.25 474.996C533.056 475.134 533.885 474.993 534.6 474.596C536.899 473.55 539.377 472.956 541.9 472.846C540.842 474.066 539.935 475.409 539.2 476.846C539.002 478.562 539.173 480.301 539.7 481.946ZM531.65 477.446L526.1 474.096C526.213 472.615 526.06 471.125 525.65 469.696C527.25 470.046 531.4 468.396 533.3 468.546C532.396 469.772 531.577 471.058 530.85 472.396C530.85 474.111 531.12 475.815 531.65 477.446ZM533.8 470.196C533.676 471.192 533.676 472.2 533.8 473.196C533.45 473.196 532.3 473.746 532.2 473.196C532.1 472.646 533.2 470.796 533.8 470.196ZM542.6 474.496C542.57 475.475 542.688 476.453 542.95 477.396C542.181 477.68 541.37 477.832 540.55 477.846C540.55 477.846 540.35 477.146 542.6 474.496ZM552.2 479.496C552.265 480.319 552.45 481.127 552.75 481.896C551.754 482.276 550.735 482.593 549.7 482.846C550.3 481.946 551.1 480.796 552.2 479.446V479.496ZM524.65 469.096C524.626 470.598 524.811 472.096 525.2 473.546C524.348 473.025 523.514 472.475 522.7 471.896L521.55 463.496C522.8 463.496 525.4 462.746 525.4 463.496C525.4 464.246 523.3 467.546 524.65 469.046V469.096ZM535.35 455.596C536.05 455.146 536.8 454.596 537.5 454.046L548.5 460.796C546.06 461.288 543.53 461.079 541.203 460.194C538.877 459.309 536.847 457.785 535.35 455.796V455.596ZM481.8 499.996C480.6 499.646 487.5 488.946 488.3 487.696C490.75 483.746 502.6 465.446 503.6 463.946C507.732 464.189 511.878 463.937 515.95 463.196C516.75 492.796 522.1 505.096 528.6 516.646C525.25 515.596 521.85 517.146 518.9 516.096C514.75 514.696 514.9 508.696 508.9 508.346C504.98 508.808 501.208 510.122 497.85 512.196C496.5 512.746 496.2 512.196 495.85 511.596C495.355 508.215 494.62 504.873 493.65 501.596C491.35 497.646 484.15 500.796 481.8 499.996ZM357.15 643.596L380.75 657.846C379.375 659.145 377.886 660.316 376.3 661.346C372.45 663.396 368.45 661.846 368.4 664.896C346.85 673.146 314.4 711.196 354.85 745.946C406.55 790.296 465.4 807.996 410.65 850.296C395.65 862.046 380.2 860.296 362.35 848.746C342.75 835.896 342.95 779.296 324.15 744.346C292.9 686.196 280 705.796 219.6 662.096L357.15 643.596ZM426.6 853.596C426.534 853.596 426.469 853.583 426.409 853.558C426.348 853.533 426.293 853.496 426.246 853.45C426.2 853.403 426.163 853.348 426.138 853.288C426.113 853.227 426.1 853.162 426.1 853.096C426.1 853.031 426.113 852.966 426.138 852.905C426.163 852.844 426.2 852.789 426.246 852.743C426.293 852.696 426.348 852.659 426.409 852.634C426.469 852.609 426.534 852.596 426.6 852.596C426.7 852.629 426.787 852.693 426.849 852.778C426.911 852.863 426.944 852.966 426.944 853.071C426.944 853.177 426.911 853.279 426.849 853.365C426.787 853.45 426.7 853.513 426.6 853.546V853.596ZM401 868.596C400.79 868.636 400.575 868.628 400.369 868.575C400.162 868.522 399.97 868.423 399.806 868.287C399.642 868.151 399.51 867.981 399.419 867.788C399.329 867.595 399.282 867.384 399.282 867.171C399.282 866.958 399.329 866.748 399.419 866.555C399.51 866.362 399.642 866.191 399.806 866.055C399.97 865.919 400.162 865.821 400.369 865.768C400.575 865.714 400.79 865.707 401 865.746C401.404 865.746 401.792 865.907 402.078 866.193C402.364 866.479 402.525 866.867 402.525 867.271C402.525 867.676 402.364 868.064 402.078 868.35C401.792 868.636 401.404 868.796 401 868.796V868.596ZM336.6 865.096C337.112 863.612 337.873 862.225 338.85 860.996C336.6 857.896 335.25 856.346 339.15 856.546C340.293 856.63 341.419 856.866 342.5 857.246C346.5 852.846 347.2 853.146 347.05 859.146C348.05 859.646 350.4 860.846 350.85 861.846C351.3 862.846 348.75 863.446 346.95 863.996C346.95 865.196 346.5 868.996 345.35 868.996C344.2 868.996 343.55 867.146 342.05 865.246C340 865.796 336.35 867.096 336.6 865.296V865.096ZM335.95 801.396C335.741 801.436 335.525 801.428 335.319 801.375C335.112 801.322 334.92 801.223 334.756 801.087C334.592 800.951 334.46 800.781 334.369 800.588C334.279 800.395 334.232 800.184 334.232 799.971C334.232 799.758 334.279 799.548 334.369 799.355C334.46 799.162 334.592 798.991 334.756 798.855C334.92 798.719 335.112 798.621 335.319 798.568C335.525 798.514 335.741 798.507 335.95 798.546C336.354 798.546 336.742 798.707 337.028 798.993C337.314 799.279 337.475 799.667 337.475 800.071C337.475 800.476 337.314 800.864 337.028 801.15C336.742 801.436 336.354 801.596 335.95 801.596V801.396ZM275.55 728.896C275.341 728.936 275.125 728.928 274.919 728.875C274.712 728.822 274.52 728.723 274.356 728.587C274.192 728.451 274.06 728.281 273.969 728.088C273.879 727.895 273.832 727.684 273.832 727.471C273.832 727.258 273.879 727.048 273.969 726.855C274.06 726.662 274.192 726.491 274.356 726.355C274.52 726.219 274.712 726.121 274.919 726.068C275.125 726.014 275.341 726.007 275.55 726.046C275.759 726.007 275.975 726.014 276.181 726.068C276.388 726.121 276.58 726.219 276.744 726.355C276.908 726.491 277.04 726.662 277.13 726.855C277.221 727.048 277.268 727.258 277.268 727.471C277.268 727.684 277.221 727.895 277.13 728.088C277.04 728.281 276.908 728.451 276.744 728.587C276.58 728.723 276.388 728.822 276.181 728.875C275.975 728.928 275.759 728.936 275.55 728.896ZM255.55 697.696C255.341 697.736 255.125 697.728 254.919 697.675C254.712 697.622 254.52 697.523 254.356 697.387C254.192 697.251 254.06 697.081 253.969 696.888C253.879 696.695 253.832 696.484 253.832 696.271C253.832 696.058 253.879 695.848 253.969 695.655C254.06 695.462 254.192 695.291 254.356 695.155C254.52 695.019 254.712 694.921 254.919 694.868C255.125 694.814 255.341 694.807 255.55 694.846C255.757 694.798 255.971 694.795 256.179 694.839C256.387 694.882 256.582 694.97 256.752 695.098C256.922 695.225 257.062 695.388 257.161 695.576C257.261 695.763 257.319 695.97 257.33 696.182C257.341 696.393 257.306 696.605 257.226 696.802C257.146 696.999 257.025 697.175 256.869 697.32C256.714 697.464 256.528 697.573 256.326 697.638C256.124 697.703 255.911 697.723 255.7 697.696H255.55ZM196.9 687.696C197.109 687.657 197.325 687.664 197.531 687.718C197.738 687.771 197.93 687.869 198.094 688.005C198.258 688.141 198.39 688.312 198.48 688.505C198.571 688.698 198.618 688.908 198.618 689.121C198.618 689.334 198.571 689.545 198.48 689.738C198.39 689.931 198.258 690.101 198.094 690.237C197.93 690.373 197.738 690.472 197.531 690.525C197.325 690.578 197.109 690.586 196.9 690.546C196.689 690.573 196.476 690.553 196.274 690.488C196.072 690.423 195.886 690.314 195.731 690.17C195.575 690.025 195.454 689.849 195.374 689.652C195.294 689.455 195.259 689.243 195.27 689.031C195.281 688.82 195.339 688.613 195.439 688.425C195.538 688.238 195.678 688.075 195.848 687.948C196.018 687.82 196.213 687.732 196.421 687.689C196.629 687.645 196.843 687.648 197.05 687.696H196.9ZM163.95 587.696C166.018 586.032 168.373 584.761 170.9 583.946C170.9 577.446 170.4 573.946 175.55 577.796C177.054 579.023 178.398 580.434 179.55 581.996C181.871 581.294 184.276 580.907 186.7 580.846C187.4 580.846 187.85 581.246 187.8 581.946C186.946 584.527 185.661 586.944 184 589.096C185.442 591.34 186.333 593.893 186.6 596.546C186.15 598.996 182.3 596.846 179.2 595.946C177.85 597.546 173.7 602.846 172.15 601.646C170.6 600.446 171.45 597.346 171.25 593.146C168.2 592.046 162 590.046 164.1 587.696H163.95ZM145.55 631.796C145.759 631.757 145.975 631.764 146.181 631.818C146.388 631.871 146.58 631.969 146.744 632.105C146.908 632.241 147.04 632.412 147.13 632.605C147.221 632.798 147.268 633.008 147.268 633.221C147.268 633.434 147.221 633.645 147.13 633.838C147.04 634.031 146.908 634.201 146.744 634.337C146.58 634.473 146.388 634.572 146.181 634.625C145.975 634.678 145.759 634.686 145.55 634.646C145.339 634.673 145.126 634.653 144.924 634.588C144.722 634.523 144.536 634.414 144.381 634.27C144.225 634.125 144.104 633.949 144.024 633.752C143.944 633.555 143.909 633.343 143.92 633.132C143.931 632.92 143.989 632.713 144.089 632.526C144.188 632.338 144.328 632.175 144.498 632.048C144.668 631.92 144.863 631.832 145.071 631.788C145.279 631.745 145.493 631.748 145.7 631.796H145.55ZM627.8 797.846C609.5 821.696 336.25 954.296 309.65 967.146C247.2 892.996 150 757.796 93 678.896L144.5 672.146C176.6 722.796 225.8 711.046 252.2 727.146C281.9 745.296 297.2 758.996 306.2 794.196C318.45 842.046 303 862.696 338.8 877.946C373.1 892.496 441.2 886.646 468.8 839.296C496.4 791.946 442.35 771.246 393.8 749.296C345.25 727.346 353.8 696.946 360.4 688.346C365.439 681.803 371.286 675.923 377.8 670.846C380.263 670.854 382.686 670.217 384.827 668.998C386.967 667.779 388.751 666.02 390 663.896C395.85 667.046 617.75 792.096 627.95 797.846H627.8ZM442.8 856.796C442.866 856.796 442.931 856.809 442.991 856.834C443.052 856.859 443.107 856.896 443.154 856.943C443.2 856.989 443.237 857.044 443.262 857.105C443.287 857.166 443.3 857.231 443.3 857.296C443.3 857.362 443.287 857.427 443.262 857.488C443.237 857.548 443.2 857.603 443.154 857.65C443.107 857.696 443.052 857.733 442.991 857.758C442.931 857.783 442.866 857.796 442.8 857.796C442.734 857.793 442.67 857.777 442.611 857.749C442.551 857.72 442.498 857.681 442.454 857.632C442.41 857.583 442.376 857.526 442.353 857.465C442.331 857.403 442.322 857.337 442.325 857.271C442.328 857.206 442.344 857.141 442.373 857.082C442.401 857.022 442.44 856.969 442.489 856.925C442.538 856.881 442.595 856.847 442.657 856.825C442.719 856.803 442.784 856.793 442.85 856.796H442.8ZM455.6 806.146C455 806.546 454.1 806.146 452.7 805.446C450.5 807.896 449.45 808.596 449.7 804.446C447.55 803.746 446.35 803.396 448.35 802.246C448.95 801.919 449.588 801.668 450.25 801.496C450.8 798.046 451.25 797.996 453.15 800.896C454.07 800.67 455.03 800.67 455.95 800.896C456.65 801.296 455.5 802.246 454.7 803.196C455 803.896 456.2 805.796 455.65 806.146H455.6ZM381.8 667.846C379.871 668.483 377.801 668.563 375.829 668.076C373.857 667.59 372.062 666.557 370.65 665.096H371.1C380.55 663.646 379.15 659.746 384.05 657.346C384.5 657.846 384.05 657.696 392 658.296C389.992 662.7 386.326 666.133 381.8 667.846ZM393.35 647.846C392.626 649.192 392.346 650.732 392.55 652.246C392.55 652.596 392.2 654.196 392 655.696L386.6 655.246C386.6 654.996 390.15 646.546 390.4 645.746H393.8L393.35 647.846ZM392.35 633.796C388.9 640.246 387.35 652.246 384.3 650.146C383.234 649.044 382.627 647.579 382.6 646.046C382.439 643.162 382.847 640.274 383.8 637.546C384.615 634.683 386.05 632.035 388.003 629.788C389.956 627.542 392.379 625.752 395.1 624.546C392.45 634.746 393.2 632.446 392.35 633.996V633.796ZM395.95 641.346C396.75 638.996 397.85 635.546 399.4 631.046C400.05 630.696 400.2 631.046 401.05 633.146C402.4 636.646 394.5 645.546 394.5 645.546C395 644.096 395.55 642.696 395.95 641.546V641.346ZM537.15 554.696C519.5 581.246 506.4 593.146 485.8 604.696C465.719 615.379 444.365 623.477 422.25 628.796C413.35 631.546 405.9 651.296 396.15 652.196C395.05 652.196 394.3 652.196 395.2 649.696C397.45 643.446 405.6 638.246 403.25 632.296C402.952 631.402 402.549 630.546 402.05 629.746C401.645 629.093 401.027 628.598 400.3 628.346C400.6 627.346 401.6 624.446 402.95 620.346C404.1 619.546 404.9 619.296 410.15 616.196C427.75 605.796 434.65 587.146 449.45 569.696C457.267 560.134 466.389 551.718 476.55 544.696C477.3 544.246 476.05 544.996 481.85 526.696C485.2 516.146 489.1 504.996 490.25 501.696C490.466 501.726 490.673 501.805 490.855 501.926C491.037 502.047 491.189 502.208 491.3 502.396C492.6 504.846 492.35 509.546 493.45 512.396C496.05 518.696 502.5 510.246 508.45 510.396C513.45 510.396 513.45 516.146 518.45 517.596C522.2 518.696 525.95 516.396 529.45 518.046C534.035 525.844 539.432 533.134 545.55 539.796C543.278 545.106 540.463 550.166 537.15 554.896V554.696ZM567.85 556.296C552.715 545.478 540.066 531.55 530.75 515.446C524.6 504.746 518.9 492.796 516.95 462.796C518.13 462.59 519.298 462.323 520.45 461.996L521.5 471.996C527.007 476.166 532.824 479.91 538.9 483.196C538.9 483.196 534.65 507.246 553.9 538.196C563.15 553.396 567.85 556.496 567.85 556.496V556.296ZM660.8 620.796C661.7 631.696 651.8 691.196 650.45 699.296C650.37 699.326 650.297 699.373 650.237 699.434C650.177 699.494 650.13 699.566 650.1 699.646C650.75 697.196 639.5 735.046 638.65 746.896C638.65 747.846 638.65 747.396 647.2 754.796C650.1 757.346 660.05 765.796 660.55 768.746C660.779 769.513 660.779 770.33 660.55 771.096C656.084 766.364 650.755 762.529 644.85 759.796C644.744 759.73 644.616 759.708 644.494 759.737C644.372 759.765 644.266 759.84 644.2 759.946C644.134 760.052 644.112 760.18 644.14 760.302C644.168 760.424 644.244 760.53 644.35 760.596L648.4 763.896C652.451 766.647 656.175 769.851 659.5 773.446C659 774.696 657.9 774.796 656.6 774.446C656.6 771.846 645.2 765.546 641.6 763.396C641.05 763.096 640.55 763.896 641.1 764.196C646.121 767.096 650.801 770.551 655.05 774.496C653.45 778.096 648.6 772.946 630.95 765.696C627.769 764.266 624.403 763.29 620.95 762.796C620.716 762.78 620.483 762.84 620.285 762.966C620.087 763.092 619.935 763.278 619.85 763.496C619.4 764.796 620.8 764.746 625.3 769.296C626.257 770.135 627.083 771.113 627.75 772.196C624.754 772.55 621.728 771.842 619.2 770.196C617.196 768.857 615.615 766.975 614.641 764.77C613.667 762.566 613.341 760.13 613.7 757.746C614.55 752.746 619.5 750.196 617.45 745.746C615.4 741.296 611.2 712.396 610.6 708.246C605.05 670.696 607.15 669.896 606.1 669.596C606.1 617.496 607.75 617.296 607.35 614.596C607.35 614.046 596.15 537.146 596.05 536.546C599.35 536.546 601.7 540.196 603.55 543.196C606.25 547.496 608.55 550.296 613.95 548.646C619.35 546.996 623.95 542.446 628.95 540.646C633.95 538.846 636.6 540.646 642.05 542.396C644.15 543.399 646.521 543.682 648.798 543.204C651.075 542.725 653.132 541.51 654.65 539.746C663.35 532.496 659.25 530.696 677.05 537.696C673.6 551.146 665.85 589.146 665.7 589.746C662.541 599.797 660.89 610.261 660.8 620.796ZM595.45 534.096C591.528 535.512 587.704 537.182 584 539.096C583.15 539.096 582.8 539.096 582.55 538.096C581 530.946 599.2 446.296 644.55 443.096C665.25 441.696 679.55 478.846 685.8 498.646C689.911 511.232 693.103 524.099 695.35 537.146C696.25 546.196 669.85 529.246 662.25 530.996C659.25 531.696 657.9 534.246 653.6 537.846C649.3 541.446 647.1 541.446 643.3 540.096C638.811 537.637 633.55 536.993 628.6 538.296C623.3 540.196 618.9 544.646 613.6 546.296C609.1 547.746 607.7 544.646 605.15 540.646C602.6 536.646 600 533.246 595.45 533.896V534.096ZM669.95 581.296C672.05 572.996 675.75 555.796 678.5 537.796C683.1 539.596 693.15 543.996 696.5 540.796C696.999 540.261 697.359 539.613 697.551 538.907C697.743 538.202 697.759 537.46 697.6 536.746C695.788 526.193 693.282 515.77 690.1 505.546C683.4 483.296 667.75 440.546 644.45 441.996C597.15 445.296 578.7 530.646 580.3 538.346C580.346 538.841 580.506 539.319 580.765 539.743C581.025 540.166 581.379 540.525 581.799 540.79C582.219 541.056 582.695 541.222 583.189 541.275C583.683 541.328 584.183 541.267 584.65 541.096C587.5 540.396 591.55 537.296 595.25 536.446C595.8 545.546 596.85 557.646 599.05 573.296C590.615 569.978 582.47 565.964 574.7 561.296C559.013 546.06 547.954 526.699 542.8 505.446C541.042 498.491 540.037 491.367 539.8 484.196C548.879 489.266 558.302 493.694 568 497.446C568.161 497.51 568.335 497.534 568.507 497.518C568.679 497.501 568.845 497.444 568.991 497.352C569.137 497.259 569.259 497.134 569.348 496.985C569.436 496.836 569.488 496.669 569.5 496.496C571.328 482.371 577.315 469.109 586.7 458.396C596.262 447.801 608.966 440.547 622.95 437.696C623.176 437.659 623.384 437.552 623.547 437.391C623.709 437.23 623.817 437.022 623.856 436.796C623.894 436.57 623.861 436.338 623.762 436.132C623.662 435.926 623.501 435.756 623.3 435.646C613.395 429.931 603.179 424.773 592.7 420.196C586.208 417.18 579.399 414.899 572.4 413.396C573.755 409.667 574.661 405.79 575.1 401.846C585.1 397.596 635.55 403.846 669.55 400.296C674.701 399.978 679.808 399.157 684.8 397.846C715.45 396.996 761.6 434.696 770.1 451.696C778.6 468.696 777.25 489.946 758.4 516.396C740.65 541.146 676.85 577.246 670 581.096L669.95 581.296ZM806 682.246C812.95 660.346 801.95 639.846 798 633.496L831.1 632.596C835.361 635.118 838.613 639.042 840.3 643.696C843.014 650.666 844.453 658.067 844.55 665.546C834.65 669.996 816.3 678.396 806 682.046V682.246ZM846.7 664.196C846.425 656.872 844.727 649.671 841.7 642.996C839.695 638.287 836.176 634.38 831.7 631.896C833.694 629.755 836.112 628.053 838.8 626.896C838.8 628.496 836.85 631.896 839.2 632.246C841.55 632.596 841.8 630.296 843.25 629.546C843.85 629.246 845.05 629.196 844.55 630.496C844.05 631.796 842.95 633.746 844.1 635.496C844.947 636.492 846.113 637.164 847.4 637.396C847.7 637.396 845.7 638.796 845.15 640.396C845.019 640.775 845.04 641.189 845.207 641.552C845.375 641.916 845.677 642.2 846.05 642.346C847.75 642.996 850.7 641.296 852.55 643.146C853.3 643.946 852.9 644.696 851.95 645.246C849.65 646.696 849.35 648.396 851.5 650.246C852.58 650.998 853.541 651.908 854.35 652.946C852.779 652.935 851.25 653.445 850 654.396C849.762 654.578 849.568 654.813 849.435 655.082C849.302 655.35 849.233 655.646 849.233 655.946C849.233 656.246 849.302 656.542 849.435 656.811C849.568 657.08 849.762 657.314 850 657.496C851.1 658.446 853.8 659.446 854.4 660.296C852.018 661.882 849.426 663.128 846.7 663.996V664.196ZM907.35 629.596C905.3 637.946 860.3 658.096 857.1 659.596C856.55 657.646 853.4 656.696 852.1 655.746C853.5 654.996 856.3 655.296 856.85 653.546C857.4 651.796 853.5 648.896 852.6 647.746C853.45 646.946 856.5 645.496 855.15 642.746C854.536 641.712 853.61 640.899 852.505 640.423C851.4 639.947 850.173 639.833 849 640.096H848.25C849.35 638.696 851.15 636.896 849.5 635.696C847.85 634.496 846.75 635.696 845.9 634.046C850.65 634.646 854.55 635.296 857.55 635.946C857.65 635.961 857.752 635.953 857.849 635.925C857.945 635.896 858.035 635.847 858.111 635.78C858.187 635.714 858.248 635.632 858.289 635.539C858.33 635.447 858.351 635.347 858.35 635.246C858.35 637.246 856.95 623.696 864.05 622.096C867.22 621.762 870.424 622.211 873.38 623.406C876.336 624.6 878.952 626.503 881 628.946C881.117 629.092 881.273 629.203 881.45 629.265C881.626 629.326 881.817 629.337 882 629.296C883.85 628.946 899.2 625.796 905.35 628.046C906.05 627.996 907.5 628.696 907.35 629.396V629.596Z" fill="#7064FC"/>
</svg>
